<?xml version="1.0" standalone="no"?>
<!DOCTYPE svg PUBLIC "-//W3C//DTD SVG 20010904//EN"
 "http://www.w3.org/TR/2001/REC-SVG-20010904/DTD/svg10.dtd">
<svg version="1.0" xmlns="http://www.w3.org/2000/svg"
 width="700.000000pt" height="700.000000pt" viewBox="0 0 700.000000 700.000000"
 preserveAspectRatio="xMidYMid meet">
<metadata>
Created by potrace 1.14, written by Peter Selinger 2001-2017
</metadata>
<g transform="translate(0.000000,700.000000) scale(0.100000,-0.100000)"
fill="#000000" stroke="none">
<path d="M630 6985 c-313 -63 -547 -296 -615 -614 -21 -100 -21 -4850 0 -4960
47 -239 202 -444 420 -554 85 -42 228 -79 311 -79 l31 0 6 -72 c25 -336 302
-639 633 -693 65 -11 1141 -10 1269 0 136 11 184 16 225 22 19 3 55 8 80 11
70 8 294 51 410 78 540 126 1055 349 1520 659 93 62 246 172 260 187 3 3 30
24 60 47 30 23 67 53 81 65 15 13 58 50 97 83 72 60 315 303 407 405 155 171
414 524 507 690 14 25 51 90 83 145 51 89 148 283 188 375 8 19 24 56 36 82
11 26 21 55 21 63 0 8 5 15 10 15 6 0 9 3 8 8 0 4 2 16 6 27 29 77 42 111 71
200 39 115 83 261 89 290 2 11 11 48 20 82 16 60 52 228 62 288 2 17 9 55 14
85 11 68 17 108 25 185 4 33 9 71 11 85 19 120 29 1305 11 1394 -13 68 -20 89
-48 157 -108 263 -362 453 -637 476 -41 3 -75 11 -77 17 -2 6 -6 38 -9 72 -28
285 -234 551 -502 645 -64 23 -74 25 -149 39 -29 5 -1077 9 -2460 8 -1945 0
-2423 -2 -2475 -13z"/>
</g>
</svg>
