<?xml version="1.0" standalone="no"?>
<!DOCTYPE svg PUBLIC "-//W3C//DTD SVG 20010904//EN"
 "http://www.w3.org/TR/2001/REC-SVG-20010904/DTD/svg10.dtd">
<svg version="1.0" xmlns="http://www.w3.org/2000/svg"
 width="852.000000pt" height="852.000000pt" viewBox="0 0 852.000000 852.000000"
 preserveAspectRatio="xMidYMid meet">
<metadata>
Created by potrace 1.14, written by Peter Selinger 2001-2017
</metadata>
<g transform="translate(0.000000,852.000000) scale(0.100000,-0.100000)"
fill="#000000" stroke="none">
<path d="M4028 8515 c-1 -1 -43 -6 -93 -9 -49 -3 -101 -8 -115 -10 -14 -3 -50
-7 -80 -11 -77 -9 -98 -12 -157 -23 -29 -5 -53 -7 -53 -4 0 2 -7 -1 -15 -8 -8
-7 -15 -10 -15 -7 0 3 -19 0 -42 -5 -24 -5 -54 -12 -68 -14 -55 -11 -225 -56
-303 -81 -45 -15 -89 -28 -97 -29 -8 -2 -23 -7 -35 -12 -11 -6 -49 -20 -85
-32 -36 -13 -78 -29 -95 -36 -16 -7 -64 -27 -105 -44 -103 -44 -324 -153 -328
-162 -2 -5 -7 -8 -12 -8 -14 0 -313 -181 -330 -200 -3 -3 -25 -19 -50 -35 -25
-16 -47 -33 -50 -36 -3 -3 -32 -25 -65 -49 -33 -24 -65 -49 -71 -54 -7 -6 -58
-50 -115 -98 -103 -86 -356 -338 -414 -411 -16 -21 -41 -50 -55 -65 -14 -15
-52 -63 -85 -107 -33 -44 -62 -82 -65 -85 -15 -12 -177 -262 -227 -349 -53
-90 -193 -364 -193 -375 0 -3 -11 -30 -25 -61 -30 -65 -95 -232 -100 -257 -2
-9 -9 -27 -16 -40 -7 -13 -11 -23 -9 -23 2 0 -9 -36 -23 -80 -27 -84 -86 -312
-92 -355 -2 -14 -8 -47 -14 -73 -6 -26 -13 -65 -16 -85 -3 -20 -7 -48 -10 -61
-2 -13 -7 -49 -11 -80 -3 -31 -8 -69 -10 -86 -26 -189 -26 -679 0 -870 2 -16
7 -57 11 -90 10 -80 13 -100 15 -100 1 0 3 -13 5 -30 2 -16 6 -43 9 -60 4 -16
11 -55 17 -85 23 -117 56 -244 106 -405 14 -44 26 -84 27 -90 2 -5 7 -19 11
-30 5 -11 27 -69 51 -130 23 -60 50 -125 59 -143 9 -18 18 -38 19 -45 4 -21
80 -172 88 -175 4 -2 8 -11 8 -21 0 -9 4 -21 9 -26 4 -6 22 -35 38 -65 65
-118 87 -155 95 -158 4 -2 8 -7 8 -12 0 -8 86 -142 127 -200 54 -75 168 -226
174 -230 3 -3 30 -34 60 -70 67 -82 333 -349 419 -421 36 -30 69 -59 75 -65
36 -41 364 -272 495 -349 159 -93 402 -216 445 -225 6 -1 15 -5 20 -10 9 -7
188 -80 210 -85 6 -1 24 -8 40 -15 31 -14 40 -17 65 -23 8 -2 22 -7 30 -10 60
-25 381 -107 475 -122 11 -2 45 -8 75 -14 30 -6 73 -13 95 -15 22 -2 54 -7 70
-10 79 -15 191 -24 363 -31 62 -2 117 -7 122 -10 6 -3 10 -2 10 4 0 6 11 6 29
1 16 -4 32 -6 34 -4 3 3 60 7 128 9 68 2 153 7 187 10 64 5 325 41 372 50 39
8 72 14 105 20 17 3 66 15 110 26 44 12 85 22 90 23 6 1 16 5 23 9 6 5 12 6
12 4 0 -10 312 91 385 123 11 5 60 26 109 46 49 19 96 40 105 44 9 5 77 39
151 75 74 37 142 73 150 80 8 7 25 16 38 19 12 4 22 12 22 17 0 5 3 8 8 7 4
-2 39 17 77 42 39 24 77 49 86 55 73 46 231 159 266 189 30 27 43 36 47 36 3
0 16 10 28 23 13 12 45 40 72 62 26 22 71 61 98 88 28 26 52 47 54 47 7 0 228
234 284 301 8 10 30 36 49 58 19 23 65 83 103 134 37 50 75 99 83 108 8 9 15
19 15 22 0 7 60 98 71 107 8 7 121 199 144 245 11 22 22 42 25 45 5 5 102 199
105 210 3 11 41 99 75 175 21 46 59 152 66 180 4 17 11 36 17 42 5 7 6 13 2
13 -4 0 -2 7 5 15 7 8 9 15 5 15 -4 0 -3 6 3 13 5 6 13 28 18 47 13 60 19 79
27 100 7 17 47 173 53 208 7 41 12 67 23 117 6 28 13 68 17 90 3 22 7 49 9 60
2 11 6 45 10 75 4 30 9 66 11 80 22 130 27 783 5 824 -2 6 -5 28 -7 50 -1 42
-12 125 -19 161 -3 11 -7 36 -10 55 -2 19 -10 62 -16 95 -6 33 -12 69 -14 80
-2 11 -22 90 -44 175 -43 160 -44 165 -53 190 -3 8 -11 35 -19 60 -7 25 -16
49 -21 54 -4 6 -8 16 -8 24 0 12 -13 47 -55 157 -5 11 -9 22 -9 25 -1 3 -14
31 -29 64 -15 32 -27 60 -27 63 0 4 -120 244 -161 323 -13 25 -27 47 -31 48
-5 2 -8 10 -8 18 0 8 -4 14 -10 14 -5 0 -10 5 -10 11 0 6 -15 34 -33 62 -19
29 -49 76 -67 105 -18 28 -37 52 -42 52 -4 0 -8 5 -8 11 0 9 -98 147 -137 194
-5 6 -33 39 -62 75 -70 85 -212 240 -279 304 -161 154 -163 156 -403 348 -19
15 -40 28 -46 28 -7 0 -13 4 -13 9 0 7 -65 56 -95 71 -5 3 -50 31 -99 63 -88
58 -110 71 -216 130 -161 89 -530 256 -530 240 0 -3 -6 0 -14 6 -8 7 -22 14
-32 16 -11 2 -39 12 -64 21 -46 17 -259 81 -295 89 -11 2 -37 9 -57 14 -21 5
-38 7 -38 5 0 -3 -8 0 -18 5 -10 5 -38 12 -62 16 -25 4 -47 8 -50 10 -3 2 -24
6 -46 9 -22 4 -51 9 -64 11 -24 5 -209 30 -300 41 -50 5 -586 14 -592 9z"/>
</g>
</svg>
