<svg width="2053" height="4590" viewBox="0 0 2053 4590" fill="none" xmlns="http://www.w3.org/2000/svg">
<g opacity="0.3" filter="url(#filter0_f_197_7)">
<path fill-rule="evenodd" clip-rule="evenodd" d="M1804.21 1684C1793.17 1718.67 1767.91 1745.19 1745.04 1773.46C1725.33 1797.82 1704.32 1819.54 1679.29 1838.37C1651.41 1859.36 1625.12 1888.56 1590.27 1889.95C1555.31 1891.34 1525.95 1865.41 1497.07 1845.63C1469.91 1827.04 1450.57 1801.43 1427.17 1778.29C1395.13 1746.61 1339.83 1728.64 1333.57 1684C1327.51 1640.85 1371.49 1607.35 1398.35 1573.06C1422.16 1542.67 1448.74 1515.75 1481.44 1495.26C1515.01 1474.22 1551.08 1447.02 1590.27 1452.78C1629.4 1458.54 1646.04 1508.5 1682.09 1524.78C1724.12 1543.76 1786.75 1517.58 1814.84 1554.19C1841.7 1589.22 1817.6 1641.92 1804.21 1684Z" fill="#FF9882"/>
</g>
<g opacity="0.3" filter="url(#filter1_f_197_7)">
<path fill-rule="evenodd" clip-rule="evenodd" d="M1863.21 1806C1852.17 1840.67 1826.91 1867.19 1804.04 1895.46C1784.33 1919.82 1763.32 1941.54 1738.29 1960.37C1710.41 1981.36 1684.12 2010.56 1649.27 2011.95C1614.31 2013.34 1584.95 1987.41 1556.07 1967.63C1528.91 1949.04 1509.57 1923.43 1486.17 1900.29C1454.13 1868.61 1398.83 1850.64 1392.57 1806C1386.51 1762.85 1430.49 1729.35 1457.35 1695.06C1481.16 1664.67 1507.74 1637.75 1540.44 1617.26C1574.01 1596.22 1610.08 1569.02 1649.27 1574.78C1688.4 1580.54 1705.04 1630.5 1741.09 1646.78C1783.12 1665.76 1845.75 1639.58 1873.84 1676.19C1900.7 1711.22 1876.6 1763.92 1863.21 1806Z" fill="#FFFA82"/>
</g>
<g opacity="0.3" filter="url(#filter2_f_197_7)">
<path fill-rule="evenodd" clip-rule="evenodd" d="M594.209 3162C583.173 3196.67 557.914 3223.19 535.037 3251.46C515.326 3275.82 494.32 3297.54 469.292 3316.37C441.414 3337.36 415.122 3366.56 380.273 3367.95C345.311 3369.34 315.951 3343.41 287.067 3323.63C259.911 3305.04 240.575 3279.43 217.166 3256.29C185.126 3224.61 129.833 3206.64 123.566 3162C117.507 3118.85 161.489 3085.35 188.353 3051.06C212.162 3020.67 238.738 2993.75 271.438 2973.26C305.015 2952.22 341.082 2925.02 380.273 2930.78C419.401 2936.54 436.038 2986.5 472.088 3002.78C514.116 3021.76 576.755 2995.58 604.836 3032.19C631.703 3067.22 607.604 3119.92 594.209 3162Z" fill="#82FFE8"/>
</g>
<g opacity="0.3" filter="url(#filter3_f_197_7)">
<path fill-rule="evenodd" clip-rule="evenodd" d="M622.209 3419C611.173 3453.67 585.914 3480.19 563.037 3508.46C543.326 3532.82 522.32 3554.54 497.292 3573.37C469.414 3594.36 443.122 3623.56 408.273 3624.95C373.311 3626.34 343.951 3600.41 315.067 3580.63C287.911 3562.04 268.575 3536.43 245.166 3513.29C213.126 3481.61 157.833 3463.64 151.566 3419C145.507 3375.85 189.489 3342.35 216.353 3308.06C240.162 3277.67 266.738 3250.75 299.437 3230.26C333.015 3209.22 369.082 3182.02 408.273 3187.78C447.401 3193.54 464.038 3243.5 500.088 3259.78C542.116 3278.76 604.755 3252.58 632.836 3289.19C659.703 3324.22 635.604 3376.92 622.209 3419Z" fill="#C8FF82"/>
</g>
<g opacity="0.3" filter="url(#filter4_f_197_7)">
<path fill-rule="evenodd" clip-rule="evenodd" d="M1910.21 4435C1899.17 4469.67 1873.91 4496.19 1851.04 4524.46C1831.33 4548.82 1810.32 4570.54 1785.29 4589.37C1757.41 4610.36 1731.12 4639.56 1696.27 4640.95C1661.31 4642.34 1631.95 4616.41 1603.07 4596.63C1575.91 4578.04 1556.57 4552.43 1533.17 4529.29C1501.13 4497.61 1445.83 4479.64 1439.57 4435C1433.51 4391.85 1477.49 4358.35 1504.35 4324.06C1528.16 4293.67 1554.74 4266.75 1587.44 4246.26C1621.01 4225.22 1657.08 4198.02 1696.27 4203.78C1735.4 4209.54 1752.04 4259.5 1788.09 4275.78C1830.12 4294.76 1892.75 4268.58 1920.84 4305.19C1947.7 4340.22 1923.6 4392.92 1910.21 4435Z" fill="#82BBFF"/>
</g>
<g opacity="0.3" filter="url(#filter5_f_197_7)">
<path fill-rule="evenodd" clip-rule="evenodd" d="M1664.21 4500C1653.17 4534.67 1627.91 4561.19 1605.04 4589.46C1585.33 4613.82 1564.32 4635.54 1539.29 4654.37C1511.41 4675.36 1485.12 4704.56 1450.27 4705.95C1415.31 4707.34 1385.95 4681.41 1357.07 4661.63C1329.91 4643.04 1310.57 4617.43 1287.17 4594.29C1255.13 4562.61 1199.83 4544.64 1193.57 4500C1187.51 4456.85 1231.49 4423.35 1258.35 4389.06C1282.16 4358.67 1308.74 4331.75 1341.44 4311.26C1375.01 4290.22 1411.08 4263.02 1450.27 4268.78C1489.4 4274.54 1506.04 4324.5 1542.09 4340.78C1584.12 4359.76 1646.75 4333.58 1674.84 4370.19C1701.7 4405.22 1677.6 4457.92 1664.21 4500Z" fill="#B9FF82"/>
</g>
<g opacity="0.3" filter="url(#filter6_f_197_7)">
<path fill-rule="evenodd" clip-rule="evenodd" d="M591.209 155.001C580.173 189.669 554.914 216.19 532.037 244.462C512.326 268.821 491.32 290.535 466.292 309.373C438.414 330.356 412.122 359.558 377.273 360.946C342.312 362.339 312.951 336.407 284.067 316.634C256.911 298.044 237.575 272.427 214.166 249.286C182.126 217.612 126.833 199.642 120.566 155.001C114.507 111.845 158.489 78.3497 185.353 44.0607C209.162 13.6712 235.738 -13.2453 268.438 -33.7378C302.015 -54.7805 338.082 -81.9806 377.273 -76.2154C416.401 -70.4596 433.038 -20.5008 469.088 -4.2213C511.116 14.7576 573.755 -11.4202 601.836 25.1917C628.703 60.222 604.604 112.919 591.209 155.001Z" fill="#82F7FF"/>
</g>
<g opacity="0.3" filter="url(#filter7_f_197_7)">
<path fill-rule="evenodd" clip-rule="evenodd" d="M838.209 70.0007C827.173 104.669 801.914 131.19 779.037 159.462C759.326 183.821 738.32 205.535 713.292 224.373C685.414 245.356 659.122 274.558 624.273 275.946C589.311 277.339 559.951 251.407 531.067 231.634C503.911 213.044 484.575 187.427 461.166 164.286C429.126 132.612 373.833 114.642 367.566 70.0007C361.507 26.8452 405.489 -6.65035 432.353 -40.9393C456.162 -71.3288 482.738 -98.2453 515.438 -118.738C549.015 -139.781 585.082 -166.981 624.273 -161.215C663.401 -155.46 680.038 -105.501 716.088 -89.2213C758.116 -70.2424 820.755 -96.4202 848.836 -59.8083C875.703 -24.778 851.604 27.919 838.209 70.0007Z" fill="#82FFD2"/>
</g>
<defs>
<filter id="filter0_f_197_7" x="1213" y="1332" width="734" height="678" filterUnits="userSpaceOnUse" color-interpolation-filters="sRGB">
<feFlood flood-opacity="0" result="BackgroundImageFix"/>
<feBlend mode="normal" in="SourceGraphic" in2="BackgroundImageFix" result="shape"/>
<feGaussianBlur stdDeviation="60" result="effect1_foregroundBlur_197_7"/>
</filter>
<filter id="filter1_f_197_7" x="1272" y="1454" width="734" height="678" filterUnits="userSpaceOnUse" color-interpolation-filters="sRGB">
<feFlood flood-opacity="0" result="BackgroundImageFix"/>
<feBlend mode="normal" in="SourceGraphic" in2="BackgroundImageFix" result="shape"/>
<feGaussianBlur stdDeviation="60" result="effect1_foregroundBlur_197_7"/>
</filter>
<filter id="filter2_f_197_7" x="3" y="2810" width="734" height="678" filterUnits="userSpaceOnUse" color-interpolation-filters="sRGB">
<feFlood flood-opacity="0" result="BackgroundImageFix"/>
<feBlend mode="normal" in="SourceGraphic" in2="BackgroundImageFix" result="shape"/>
<feGaussianBlur stdDeviation="60" result="effect1_foregroundBlur_197_7"/>
</filter>
<filter id="filter3_f_197_7" x="31" y="3067" width="734" height="678" filterUnits="userSpaceOnUse" color-interpolation-filters="sRGB">
<feFlood flood-opacity="0" result="BackgroundImageFix"/>
<feBlend mode="normal" in="SourceGraphic" in2="BackgroundImageFix" result="shape"/>
<feGaussianBlur stdDeviation="60" result="effect1_foregroundBlur_197_7"/>
</filter>
<filter id="filter4_f_197_7" x="1319" y="4083" width="734" height="678" filterUnits="userSpaceOnUse" color-interpolation-filters="sRGB">
<feFlood flood-opacity="0" result="BackgroundImageFix"/>
<feBlend mode="normal" in="SourceGraphic" in2="BackgroundImageFix" result="shape"/>
<feGaussianBlur stdDeviation="60" result="effect1_foregroundBlur_197_7"/>
</filter>
<filter id="filter5_f_197_7" x="1073" y="4148" width="734" height="678" filterUnits="userSpaceOnUse" color-interpolation-filters="sRGB">
<feFlood flood-opacity="0" result="BackgroundImageFix"/>
<feBlend mode="normal" in="SourceGraphic" in2="BackgroundImageFix" result="shape"/>
<feGaussianBlur stdDeviation="60" result="effect1_foregroundBlur_197_7"/>
</filter>
<filter id="filter6_f_197_7" x="3.05176e-05" y="-197" width="734" height="678" filterUnits="userSpaceOnUse" color-interpolation-filters="sRGB">
<feFlood flood-opacity="0" result="BackgroundImageFix"/>
<feBlend mode="normal" in="SourceGraphic" in2="BackgroundImageFix" result="shape"/>
<feGaussianBlur stdDeviation="60" result="effect1_foregroundBlur_197_7"/>
</filter>
<filter id="filter7_f_197_7" x="247" y="-282" width="734" height="678" filterUnits="userSpaceOnUse" color-interpolation-filters="sRGB">
<feFlood flood-opacity="0" result="BackgroundImageFix"/>
<feBlend mode="normal" in="SourceGraphic" in2="BackgroundImageFix" result="shape"/>
<feGaussianBlur stdDeviation="60" result="effect1_foregroundBlur_197_7"/>
</filter>
</defs>
</svg>
