<svg xmlns="http://www.w3.org/2000/svg"><symbol id="select2__arrow--symbol" viewBox="0 0 11 6"><path fill="#fff" d="M10.624 1.12a.74.74 0 00-.4-.66.752.752 0 00-.828.087L5.386 3.88 1.365.666A.75.75 0 00.313.778a.743.743 0 00.112 1.086l4.49 3.592a.751.751 0 00.95 0l4.49-3.719a.744.744 0 00.27-.617z"/></symbol><view id="select2__arrow" viewBox="0 0 11 6" xmlns="http://www.w3.org/2000/svg"/><use xlink:href="#select2__arrow--symbol" width="11" height="6" xmlns="http://www.w3.org/2000/svg" xmlns:xlink="http://www.w3.org/1999/xlink"/><symbol id="search__map--symbol" fill="none" xmlns="http://www.w3.org/2000/svg" viewBox="0 0 18 22"><path d="M9 0c2.387 0 4.676.993 6.364 2.762C17.052 4.53 18 6.928 18 9.429c0 4.505-2.902 8.652-8.598 12.449a.726.726 0 01-.804 0C2.902 18.08 0 13.934 0 9.428c0-2.5.948-4.898 2.636-6.666C4.324.993 6.613 0 9 0zm0 6.286c-.796 0-1.559.33-2.121.92A3.22 3.22 0 006 9.43c0 .833.316 1.633.879 2.222.562.59 1.325.92 2.121.92s1.559-.33 2.121-.92A3.22 3.22 0 0012 9.429a3.22 3.22 0 00-.879-2.223A2.932 2.932 0 009 6.286z" fill="#F59E0B"/></symbol><view id="search__map" viewBox="0 51 18 22" xmlns="http://www.w3.org/2000/svg"/><use xlink:href="#search__map--symbol" width="18" height="22" y="51" xmlns="http://www.w3.org/2000/svg" xmlns:xlink="http://www.w3.org/1999/xlink"/><symbol id="search__arrow--symbol" xmlns="http://www.w3.org/2000/svg" viewBox="0 0 7 14"><path d="M.993.002a.988.988 0 00-.879.532A1.002 1.002 0 00.23 1.638l4.442 5.348-4.284 5.358a1 1 0 00.15 1.407.99.99 0 001.142.12.993.993 0 00.305-.27l4.79-5.986a1.002 1.002 0 000-1.267L1.815.36A.992.992 0 00.992 0z"/></symbol><view id="search__arrow" viewBox="0 101 7 14" xmlns="http://www.w3.org/2000/svg"/><use xlink:href="#search__arrow--symbol" width="7" height="14" y="101" xmlns="http://www.w3.org/2000/svg" xmlns:xlink="http://www.w3.org/1999/xlink"/><symbol id="featured__popular-s" fill="none" xmlns="http://www.w3.org/2000/svg" viewBox="0 0 12 14"><path d="M11.033 6.331a5.43 5.43 0 00-1.295-1.8l-.455-.417a.126.126 0 00-.203.052l-.203.582c-.127.366-.36.74-.69 1.107a.098.098 0 01-.064.03.086.086 0 01-.067-.023.092.092 0 01-.031-.075c.058-.94-.223-2.001-.84-3.156-.508-.96-1.216-1.708-2.1-2.23l-.646-.38a.125.125 0 00-.187.115l.034.75c.023.512-.036.965-.177 1.342-.171.461-.418.89-.734 1.273a4.62 4.62 0 01-.742.72 5.51 5.51 0 00-1.567 1.9 5.434 5.434 0 00-.133 4.535 5.49 5.49 0 002.928 2.9A5.497 5.497 0 006 13.984c.742 0 1.46-.143 2.14-.426a5.446 5.446 0 001.747-1.167A5.408 5.408 0 0011.5 8.533c0-.763-.156-1.503-.467-2.202z" fill="#EF4444"/></symbol><view id="featured__popular" viewBox="0 150 12 14" xmlns="http://www.w3.org/2000/svg"/><use xlink:href="#featured__popular-s" width="12" height="14" y="150" xmlns="http://www.w3.org/2000/svg" xmlns:xlink="http://www.w3.org/1999/xlink"/><symbol id="featured__new-s" fill="none" xmlns="http://www.w3.org/2000/svg" viewBox="0 0 12 13"><path d="M12 6.221V12a1.005 1.005 0 01-.528.884.961.961 0 01-.47.116H7.997a.5.5 0 01-.5-.5v-3a.5.5 0 00-.5-.5h-2a.5.5 0 00-.5.5v3a.5.5 0 01-.5.5H1a.993.993 0 01-.75-.338 1.03 1.03 0 01-.25-.685V6.221a1.002 1.002 0 01.327-.74l5-4.546a.996.996 0 011.345 0l5 4.546a1.004 1.004 0 01.328.74z" fill="#1D4ED8"/></symbol><view id="featured__new" viewBox="0 200 12 13" xmlns="http://www.w3.org/2000/svg"/><use xlink:href="#featured__new-s" width="12" height="13" y="200" xmlns="http://www.w3.org/2000/svg" xmlns:xlink="http://www.w3.org/1999/xlink"/><symbol id="featured__best-s" fill="none" xmlns="http://www.w3.org/2000/svg" viewBox="0 0 14 14"><path d="M11.8 3.8h-10v-.4l8.8-.704V3.4h1.2V2.2c0-.88-.713-1.498-1.583-1.374L2.184 1.974C1.313 2.098.6 2.92.6 3.8v8a1.6 1.6 0 001.6 1.6h9.6a1.6 1.6 0 001.6-1.6V5.4a1.6 1.6 0 00-1.6-1.6zm-1.2 5.605a1.2 1.2 0 110-2.401 1.2 1.2 0 010 2.4z" fill="#047857"/></symbol><view id="featured__best" viewBox="0 250 14 14" xmlns="http://www.w3.org/2000/svg"/><use xlink:href="#featured__best-s" width="14" height="14" y="250" xmlns="http://www.w3.org/2000/svg" xmlns:xlink="http://www.w3.org/1999/xlink"/><symbol xmlns="http://www.w3.org/2000/svg" viewBox="0 0 33 32" id="tour__bath-s"><path d="M27.04 15.955H5.96c-.83 0-1.505.676-1.505 1.506s.676 1.506 1.506 1.506h21.078c.83 0 1.506-.676 1.506-1.506s-.676-1.506-1.506-1.506z" fill="#888B97"/><path d="M27.178 17.982a.499.499 0 00-.62.345l-.04.138H6.483l-.04-.138a.501.501 0 10-.965.275l1.383 4.842a3.528 3.528 0 003.378 2.549H22.76a3.527 3.527 0 003.378-2.549l1.383-4.842a.5.5 0 00-.343-.62zM10.24 23.985a1.51 1.51 0 01-1.448-1.092l-.651-2.282a.502.502 0 11.965-.275l.65 2.282c.063.214.26.364.484.364a.502.502 0 010 1.003z" fill="#888B97"/><path d="M11.203 25.041a.504.504 0 00-.673.225l-1.004 2.007a.503.503 0 00.899.45l1.003-2.008a.503.503 0 00-.225-.674zm12.271 2.233l-1.004-2.007a.502.502 0 10-.898.448l1.003 2.008a.502.502 0 00.899-.449zM24.615 4c-.512 0-.994.2-1.356.562l-1.593 1.593a.502.502 0 00.71.71l1.593-1.592a.908.908 0 01.651-.268c.504 0 .913.41.913.913v10.54a.502.502 0 101.005-.002V5.917A1.92 1.92 0 0024.615 4z" fill="#888B97"/><path d="M22.878 6.657l-1.004-1.004a.497.497 0 00-.437-.14l-2.509.411a.503.503 0 00-.279.844L21.66 9.87a.5.5 0 00.502.131.5.5 0 00.35-.382l.502-2.51a.502.502 0 00-.136-.452zm-6.526 3.423a.502.502 0 00-.71 0l-1.003 1.004a.502.502 0 00.71.71l1.003-1.004a.502.502 0 000-.71zm2.008 2.008a.502.502 0 00-.71 0l-1.003 1.004a.502.502 0 00.71.71l1.003-1.004a.502.502 0 000-.71zm1.004-3.011a.502.502 0 00-.71 0L17.65 10.08a.502.502 0 00.71.71l1.004-1.004a.502.502 0 000-.71z" fill="#888B97"/></symbol><view id="tour__bath" viewBox="0 300 33 32" xmlns="http://www.w3.org/2000/svg"/><use xlink:href="#tour__bath-s" width="33" height="32" y="300" xmlns="http://www.w3.org/2000/svg" xmlns:xlink="http://www.w3.org/1999/xlink"/><symbol xmlns="http://www.w3.org/2000/svg" viewBox="0 0 32 32" id="tour__bed-s"><path d="M23.8 14.77c2.271 0 4.2 1.892 4.2 4.307v3.692h-1.8V24H25v-1.23H7V24H5.8v-1.23H4v-3.693c0-2.33 1.863-4.308 4.2-4.308h15.6zM22.6 8c1.613 0 3 1.33 3 3.077v2.94a3.654 3.654 0 00-1.8-.478l-1.2-.001c0-1.054-.841-1.846-1.8-1.846h-3.6a1.77 1.77 0 00-1.2.47 1.769 1.769 0 00-1.2-.47h-3.6c-.994 0-1.8.826-1.8 1.846H8.2c-.644 0-1.254.172-1.8.479v-2.94C6.4 9.422 7.694 8 9.4 8h13.2zm-7.8 4.923c.326 0 .6.307.6.616l-4.8-.001c0-.377.292-.615.6-.615h3.6zm6 .004c.34-.004.6.296.6.61h-4.8c0-.381.292-.614.6-.614l3.6.004z" fill="#888B97"/></symbol><view id="tour__bed" viewBox="0 350 32 32" xmlns="http://www.w3.org/2000/svg"/><use xlink:href="#tour__bed-s" width="32" height="32" y="350" xmlns="http://www.w3.org/2000/svg" xmlns:xlink="http://www.w3.org/1999/xlink"/><symbol xmlns="http://www.w3.org/2000/svg" viewBox="0 0 32 32" id="tour__park-s"><path d="M27.384 10.629l-10.027-6.25a2.581 2.581 0 00-2.712.011L4.608 10.634c-.623.391-.795 1.191-.385 1.786.41.594 1.248.76 1.872.367l9.915-6.168 9.904 6.173c.228.14.482.207.733.207.444 0 .877-.207 1.136-.588.405-.598.226-1.395-.4-1.782z" fill="#888B97"/><path d="M24.21 18.753a.928.928 0 00-.902-.783h-.512l-.194-2.074C22.394 13.678 20.599 12 18.425 12h-4.849c-2.174 0-3.97 1.679-4.177 3.896l-.194 2.074h-.512a.93.93 0 00-.904.783l-.761 4.424a1.92 1.92 0 00.406 1.538c.335.41.83.654 1.348.673v.734c0 1.04.813 1.878 1.828 1.878h.577c1.014 0 1.84-.838 1.84-1.878V25.4h5.952v.72c0 1.04.819 1.88 1.833 1.88h.578c1.014 0 1.834-.84 1.834-1.88v-.732a1.823 1.823 0 001.344-.67 1.92 1.92 0 00.405-1.538l-.762-4.427zm-13.82 4.94c-.855 0-1.55-.71-1.55-1.59 0-.878.695-1.59 1.55-1.59.857 0 1.552.711 1.552 1.59 0 .88-.695 1.59-1.551 1.59zm.387-5.723l.18-1.913c.13-1.391 1.256-2.439 2.62-2.439h.279v.602a.92.92 0 00.912.937h2.464c.509 0 .92-.416.92-.937v-.601h.273c1.363 0 2.49 1.047 2.619 2.439l.18 1.913H10.777zm10.831 5.723c-.856 0-1.55-.71-1.55-1.59 0-.878.694-1.59 1.55-1.59.857 0 1.551.711 1.551 1.59 0 .88-.694 1.59-1.55 1.59z" fill="#888B97"/></symbol><view id="tour__park" viewBox="0 400 32 32" xmlns="http://www.w3.org/2000/svg"/><use xlink:href="#tour__park-s" width="32" height="32" y="400" xmlns="http://www.w3.org/2000/svg" xmlns:xlink="http://www.w3.org/1999/xlink"/><symbol xmlns="http://www.w3.org/2000/svg" viewBox="0 0 16 20" id="tour__phone-s"><path d="M4.384.48a2.4 2.4 0 012.793 1.134l.09.18.793 1.764a2.996 2.996 0 01-.53 3.262l-.159.158-1.253 1.168c-.225.214-.056 1.04.761 2.454.733 1.272 1.332 1.866 1.625 1.898h.052l.063-.012 2.46-.752a1.8 1.8 0 011.877.53l.11.137 1.628 2.256a2.4 2.4 0 01-.15 2.997l-.146.15-.651.618a4.2 4.2 0 01-4.458.845c-2.322-.936-4.432-3.074-6.348-6.393C1.02 9.546.223 6.646.579 4.162A4.2 4.2 0 013.294.815l.231-.077.86-.259z" fill="#fff"/></symbol><view id="tour__phone" viewBox="0 450 16 20" xmlns="http://www.w3.org/2000/svg"/><use xlink:href="#tour__phone-s" width="16" height="20" y="450" xmlns="http://www.w3.org/2000/svg" xmlns:xlink="http://www.w3.org/1999/xlink"/><symbol xmlns="http://www.w3.org/2000/svg" viewBox="0 0 48 48" id="tour__play-s"><g clip-path="url(#clip0_4_203)"><path d="M33 24.5l-14.5-11H18v21l15-10z" fill="#fff"/><g filter="url(#filter0_b_4_203)"><path d="M48 24a24 24 0 11-48 0 24 24 0 0148 0zm-27.63-8.721A1.5 1.5 0 0018 16.5v15a1.5 1.5 0 002.37 1.221l10.5-7.5a1.501 1.501 0 000-2.442l-10.5-7.5z" fill="#fff" fill-opacity=".5"/></g></g><defs><clipPath id="clip0_4_203"><path fill="#fff" d="M0 0h48v48H0z"/></clipPath><filter id="filter0_b_4_203" x="-5" y="-5" width="58" height="58" filterUnits="userSpaceOnUse" color-interpolation-filters="sRGB"><feFlood flood-opacity="0" result="BackgroundImageFix"/><feGaussianBlur in="BackgroundImageFix" stdDeviation="2.5"/><feComposite in2="SourceAlpha" operator="in" result="effect1_backgroundBlur_4_203"/><feBlend in="SourceGraphic" in2="effect1_backgroundBlur_4_203" result="shape"/></filter></defs></symbol><view id="tour__play" viewBox="0 500 48 48" xmlns="http://www.w3.org/2000/svg"/><use xlink:href="#tour__play-s" width="48" height="48" y="500" xmlns="http://www.w3.org/2000/svg" xmlns:xlink="http://www.w3.org/1999/xlink"/><symbol xmlns="http://www.w3.org/2000/svg" viewBox="0 0 33 32" id="tour__stairs-s"><path d="M27.288 9h-4.356c-.669 0-1.211.537-1.211 1.2v3.114h-3.145c-.67 0-1.212.536-1.212 1.199v3.114H14.22c-.67 0-1.211.537-1.211 1.2v3.264H9.712c-.322 0-.63.126-.857.35a1.195 1.195 0 00-.355.85V25.8c0 .663.543 1.2 1.212 1.2h17.576c.67 0 1.212-.537 1.212-1.2V10.2c0-.663-.542-1.2-1.212-1.2z" fill="#888B97"/><path d="M21.264 5.245a.848.848 0 00-1.178-.015C14.743 10.305 9.66 15.262 4.744 20.055a.803.803 0 00-.244.575v5.558c0 .448.373.812.833.812.46 0 .833-.364.833-.812v-5.222c4.836-4.716 9.836-9.588 15.082-14.572a.798.798 0 00.016-1.149z" fill="#888B97"/></symbol><view id="tour__stairs" viewBox="0 550 33 32" xmlns="http://www.w3.org/2000/svg"/><use xlink:href="#tour__stairs-s" width="33" height="32" y="550" xmlns="http://www.w3.org/2000/svg" xmlns:xlink="http://www.w3.org/1999/xlink"/><symbol fill="none" xmlns="http://www.w3.org/2000/svg" viewBox="0 0 28 28" id="review__star-s"><path d="M25.605 10.709a1.168 1.168 0 00-1.013-.789l-6.651-.528-2.878-6.371a1.164 1.164 0 00-2.126-.002L10.06 9.392l-6.651.528a1.167 1.167 0 00-.722 1.999L7.6 16.71l-1.738 7.527a1.167 1.167 0 001.785 1.234L14 21.236l6.352 4.235a1.168 1.168 0 001.77-1.29l-2.134-7.467 5.293-4.763c.346-.312.473-.8.324-1.242z" fill="#F59E0B"/></symbol><view id="review__star" viewBox="0 600 28 28" xmlns="http://www.w3.org/2000/svg"/><use xlink:href="#review__star-s" width="28" height="28" y="600" xmlns="http://www.w3.org/2000/svg" xmlns:xlink="http://www.w3.org/1999/xlink"/><symbol fill="none" xmlns="http://www.w3.org/2000/svg" viewBox="0 0 20 20" id="articles__clock-s"><path d="M9.99 0C4.47 0 0 4.48 0 10s4.47 10 9.99 10C15.52 20 20 15.52 20 10S15.52 0 9.99 0zM14 14a.994.994 0 01-1.41 0L9.3 10.71A1 1 0 019 10V6c0-.55.45-1 1-1s1 .45 1 1v3.59l3 3c.39.39.39 1.02 0 1.41z" fill="#888B97"/></symbol><view id="articles__clock" viewBox="0 650 20 20" xmlns="http://www.w3.org/2000/svg"/><use xlink:href="#articles__clock-s" width="20" height="20" y="650" xmlns="http://www.w3.org/2000/svg" xmlns:xlink="http://www.w3.org/1999/xlink"/><symbol fill="none" xmlns="http://www.w3.org/2000/svg" viewBox="0 0 20 16" id="subscriber__mail-s"><path d="M17 0H3a3 3 0 00-3 3v10a3 3 0 003 3h14a3 3 0 003-3V3a3 3 0 00-3-3zm0 2l-6.5 4.47a1 1 0 01-1 0L3 2h14z" fill="#3B82F6"/></symbol><view id="subscriber__mail" viewBox="0 700 20 16" xmlns="http://www.w3.org/2000/svg"/><use xlink:href="#subscriber__mail-s" width="20" height="16" y="700" xmlns="http://www.w3.org/2000/svg" xmlns:xlink="http://www.w3.org/1999/xlink"/><symbol fill="none" xmlns="http://www.w3.org/2000/svg" viewBox="0 0 2053 4590" id="body__bg-s"><g opacity=".3" filter="url(#filter0_f_197_7)"><path fill-rule="evenodd" clip-rule="evenodd" d="M1804.21 1684c-11.04 34.67-36.3 61.19-59.17 89.46-19.71 24.36-40.72 46.08-65.75 64.91-27.88 20.99-54.17 50.19-89.02 51.58-34.96 1.39-64.32-24.54-93.2-44.32-27.16-18.59-46.5-44.2-69.9-67.34-32.04-31.68-87.34-49.65-93.6-94.29-6.06-43.15 37.92-76.65 64.78-110.94 23.81-30.39 50.39-57.31 83.09-77.8 33.57-21.04 69.64-48.24 108.83-42.48 39.13 5.76 55.77 55.72 91.82 72 42.03 18.98 104.66-7.2 132.75 29.41 26.86 35.03 2.76 87.73-10.63 129.81z" fill="#FF9882"/></g><g opacity=".3" filter="url(#filter1_f_197_7)"><path fill-rule="evenodd" clip-rule="evenodd" d="M1863.21 1806c-11.04 34.67-36.3 61.19-59.17 89.46-19.71 24.36-40.72 46.08-65.75 64.91-27.88 20.99-54.17 50.19-89.02 51.58-34.96 1.39-64.32-24.54-93.2-44.32-27.16-18.59-46.5-44.2-69.9-67.34-32.04-31.68-87.34-49.65-93.6-94.29-6.06-43.15 37.92-76.65 64.78-110.94 23.81-30.39 50.39-57.31 83.09-77.8 33.57-21.04 69.64-48.24 108.83-42.48 39.13 5.76 55.77 55.72 91.82 72 42.03 18.98 104.66-7.2 132.75 29.41 26.86 35.03 2.76 87.73-10.63 129.81z" fill="#FFFA82"/></g><g opacity=".3" filter="url(#filter2_f_197_7)"><path fill-rule="evenodd" clip-rule="evenodd" d="M594.209 3162c-11.036 34.67-36.295 61.19-59.172 89.46-19.711 24.36-40.717 46.08-65.745 64.91-27.878 20.99-54.17 50.19-89.019 51.58-34.962 1.39-64.322-24.54-93.206-44.32-27.156-18.59-46.492-44.2-69.901-67.34-32.04-31.68-87.333-49.65-93.6-94.29-6.059-43.15 37.923-76.65 64.787-110.94 23.809-30.39 50.385-57.31 83.085-77.8 33.577-21.04 69.644-48.24 108.835-42.48 39.128 5.76 55.765 55.72 91.815 72 42.028 18.98 104.667-7.2 132.748 29.41 26.867 35.03 2.768 87.73-10.627 129.81z" fill="#82FFE8"/></g><g opacity=".3" filter="url(#filter3_f_197_7)"><path fill-rule="evenodd" clip-rule="evenodd" d="M622.209 3419c-11.036 34.67-36.295 61.19-59.172 89.46-19.711 24.36-40.717 46.08-65.745 64.91-27.878 20.99-54.17 50.19-89.019 51.58-34.962 1.39-64.322-24.54-93.206-44.32-27.156-18.59-46.492-44.2-69.901-67.34-32.04-31.68-87.333-49.65-93.6-94.29-6.059-43.15 37.923-76.65 64.787-110.94 23.809-30.39 50.385-57.31 83.084-77.8 33.578-21.04 69.645-48.24 108.836-42.48 39.128 5.76 55.765 55.72 91.815 72 42.028 18.98 104.667-7.2 132.748 29.41 26.867 35.03 2.768 87.73-10.627 129.81z" fill="#C8FF82"/></g><g opacity=".3" filter="url(#filter4_f_197_7)"><path fill-rule="evenodd" clip-rule="evenodd" d="M1910.21 4435c-11.04 34.67-36.3 61.19-59.17 89.46-19.71 24.36-40.72 46.08-65.75 64.91-27.88 20.99-54.17 50.19-89.02 51.58-34.96 1.39-64.32-24.54-93.2-44.32-27.16-18.59-46.5-44.2-69.9-67.34-32.04-31.68-87.34-49.65-93.6-94.29-6.06-43.15 37.92-76.65 64.78-110.94 23.81-30.39 50.39-57.31 83.09-77.8 33.57-21.04 69.64-48.24 108.83-42.48 39.13 5.76 55.77 55.72 91.82 72 42.03 18.98 104.66-7.2 132.75 29.41 26.86 35.03 2.76 87.73-10.63 129.81z" fill="#82BBFF"/></g><g opacity=".3" filter="url(#filter5_f_197_7)"><path fill-rule="evenodd" clip-rule="evenodd" d="M1664.21 4500c-11.04 34.67-36.3 61.19-59.17 89.46-19.71 24.36-40.72 46.08-65.75 64.91-27.88 20.99-54.17 50.19-89.02 51.58-34.96 1.39-64.32-24.54-93.2-44.32-27.16-18.59-46.5-44.2-69.9-67.34-32.04-31.68-87.34-49.65-93.6-94.29-6.06-43.15 37.92-76.65 64.78-110.94 23.81-30.39 50.39-57.31 83.09-77.8 33.57-21.04 69.64-48.24 108.83-42.48 39.13 5.76 55.77 55.72 91.82 72 42.03 18.98 104.66-7.2 132.75 29.41 26.86 35.03 2.76 87.73-10.63 129.81z" fill="#B9FF82"/></g><g opacity=".3" filter="url(#filter6_f_197_7)"><path fill-rule="evenodd" clip-rule="evenodd" d="M591.209 155.001c-11.036 34.668-36.295 61.189-59.172 89.461-19.711 24.359-40.717 46.073-65.745 64.911-27.878 20.983-54.17 50.185-89.019 51.573-34.961 1.393-64.322-24.539-93.206-44.312-27.156-18.59-46.492-44.207-69.901-67.348-32.04-31.674-87.333-49.644-93.6-94.285-6.059-43.156 37.923-76.651 64.787-110.94 23.809-30.39 50.385-57.306 83.085-77.799 33.577-21.043 69.644-48.243 108.835-42.477 39.128 5.755 55.765 55.714 91.815 71.994 42.028 18.979 104.667-7.2 132.748 29.413 26.867 35.03 2.768 87.727-10.627 129.809z" fill="#82F7FF"/></g><g opacity=".3" filter="url(#filter7_f_197_7)"><path fill-rule="evenodd" clip-rule="evenodd" d="M838.209 70c-11.036 34.669-36.295 61.19-59.172 89.462-19.711 24.359-40.717 46.073-65.745 64.911-27.878 20.983-54.17 50.185-89.019 51.573-34.962 1.393-64.322-24.539-93.206-44.312-27.156-18.59-46.492-44.207-69.901-67.348-32.04-31.674-87.333-49.644-93.6-94.285-6.059-43.156 37.923-76.651 64.787-110.94 23.809-30.39 50.385-57.306 83.085-77.799 33.577-21.043 69.644-48.243 108.835-42.477 39.128 5.755 55.765 55.714 91.815 71.994 42.028 18.979 104.667-7.2 132.748 29.413 26.867 35.03 2.768 87.727-10.627 129.809z" fill="#82FFD2"/></g><defs><filter id="filter0_f_197_7" x="1213" y="1332" width="734" height="678" filterUnits="userSpaceOnUse" color-interpolation-filters="sRGB"><feFlood flood-opacity="0" result="BackgroundImageFix"/><feBlend in="SourceGraphic" in2="BackgroundImageFix" result="shape"/><feGaussianBlur stdDeviation="60" result="effect1_foregroundBlur_197_7"/></filter><filter id="filter1_f_197_7" x="1272" y="1454" width="734" height="678" filterUnits="userSpaceOnUse" color-interpolation-filters="sRGB"><feFlood flood-opacity="0" result="BackgroundImageFix"/><feBlend in="SourceGraphic" in2="BackgroundImageFix" result="shape"/><feGaussianBlur stdDeviation="60" result="effect1_foregroundBlur_197_7"/></filter><filter id="filter2_f_197_7" x="3" y="2810" width="734" height="678" filterUnits="userSpaceOnUse" color-interpolation-filters="sRGB"><feFlood flood-opacity="0" result="BackgroundImageFix"/><feBlend in="SourceGraphic" in2="BackgroundImageFix" result="shape"/><feGaussianBlur stdDeviation="60" result="effect1_foregroundBlur_197_7"/></filter><filter id="filter3_f_197_7" x="31" y="3067" width="734" height="678" filterUnits="userSpaceOnUse" color-interpolation-filters="sRGB"><feFlood flood-opacity="0" result="BackgroundImageFix"/><feBlend in="SourceGraphic" in2="BackgroundImageFix" result="shape"/><feGaussianBlur stdDeviation="60" result="effect1_foregroundBlur_197_7"/></filter><filter id="filter4_f_197_7" x="1319" y="4083" width="734" height="678" filterUnits="userSpaceOnUse" color-interpolation-filters="sRGB"><feFlood flood-opacity="0" result="BackgroundImageFix"/><feBlend in="SourceGraphic" in2="BackgroundImageFix" result="shape"/><feGaussianBlur stdDeviation="60" result="effect1_foregroundBlur_197_7"/></filter><filter id="filter5_f_197_7" x="1073" y="4148" width="734" height="678" filterUnits="userSpaceOnUse" color-interpolation-filters="sRGB"><feFlood flood-opacity="0" result="BackgroundImageFix"/><feBlend in="SourceGraphic" in2="BackgroundImageFix" result="shape"/><feGaussianBlur stdDeviation="60" result="effect1_foregroundBlur_197_7"/></filter><filter id="filter6_f_197_7" x="0" y="-197" width="734" height="678" filterUnits="userSpaceOnUse" color-interpolation-filters="sRGB"><feFlood flood-opacity="0" result="BackgroundImageFix"/><feBlend in="SourceGraphic" in2="BackgroundImageFix" result="shape"/><feGaussianBlur stdDeviation="60" result="effect1_foregroundBlur_197_7"/></filter><filter id="filter7_f_197_7" x="247" y="-282" width="734" height="678" filterUnits="userSpaceOnUse" color-interpolation-filters="sRGB"><feFlood flood-opacity="0" result="BackgroundImageFix"/><feBlend in="SourceGraphic" in2="BackgroundImageFix" result="shape"/><feGaussianBlur stdDeviation="60" result="effect1_foregroundBlur_197_7"/></filter></defs></symbol><view id="body__bg" viewBox="0 750 2053 4590" xmlns="http://www.w3.org/2000/svg"/><use xlink:href="#body__bg-s" width="2053" height="4590" y="750" xmlns="http://www.w3.org/2000/svg" xmlns:xlink="http://www.w3.org/1999/xlink"/><symbol id="featured__house" xmlns="http://www.w3.org/2000/svg" viewBox="0 0 18 19"><path d="M18 8.832V17.5a1.508 1.508 0 01-.792 1.326c-.216.117-.46.177-.706.174h-4.505a.75.75 0 01-.75-.75v-4.5a.75.75 0 00-.75-.75h-3a.75.75 0 00-.75.75v4.5a.75.75 0 01-.75.75H1.5a1.49 1.49 0 01-1.124-.507A1.544 1.544 0 010 17.466V8.832a1.503 1.503 0 01.491-1.11l7.5-6.819a1.494 1.494 0 012.018 0l7.5 6.819A1.504 1.504 0 0118 8.832z"/></symbol><symbol id="featured__villa" xmlns="http://www.w3.org/2000/svg" viewBox="0 0 18 18"><path d="M4 18H1c-.55 0-1-.45-1-1V5.69c0-.42.25-.79.64-.94l11-4.23a1 1 0 011.36.94V7H5c-.55 0-1 .45-1 1v10zm10-9H7c-.55 0-1 .45-1 1v7c0 .55.45 1 1 1h4v-4c0-.55.45-1 1-1s1 .45 1 1v4h4c.55 0 1-.45 1-1V9c0-1.1-.9-2-2-2s-2 .9-2 2z"/></symbol><symbol id="featured__apartment" xmlns="http://www.w3.org/2000/svg" viewBox="0 0 18 18"><path d="M14 8V2c0-1.1-.9-2-2-2H6C4.9 0 4 .9 4 2v2H2C.9 4 0 4.9 0 6v10c0 1.1.9 2 2 2h6v-4h2v4h6c1.1 0 2-.9 2-2v-6c0-1.1-.9-2-2-2h-2zM4 16H2v-2h2v2zm0-4H2v-2h2v2zm0-4H2V6h2v2zm4 4H6v-2h2v2zm0-4H6V6h2v2zm0-4H6V2h2v2zm4 8h-2v-2h2v2zm0-4h-2V6h2v2zm0-4h-2V2h2v2zm4 12h-2v-2h2v2zm0-4h-2v-2h2v2z"/></symbol><symbol fill="none" xmlns="http://www.w3.org/2000/svg" viewBox="0 0 32 32" id="footer__fb"><path d="M12.319 26v-9.385H9v-3.378h3.319V10.35c0-2.268 1.96-4.351 6.477-4.351 1.829 0 3.181.131 3.181.131l-.107 3.155s-1.379-.01-2.884-.01c-1.629 0-1.89.562-1.89 1.493v2.467H22l-.213 3.38h-4.69V26h-4.778z" fill="#3C4563"/></symbol><symbol fill="none" xmlns="http://www.w3.org/2000/svg" viewBox="0 0 32 32" id="footer__instagram"><path d="M15.997 12.665A3.342 3.342 0 0012.663 16a3.342 3.342 0 003.334 3.335A3.342 3.342 0 0019.332 16a3.342 3.342 0 00-3.335-3.335zM26 16c0-1.38.012-2.75-.065-4.128-.078-1.6-.443-3.022-1.614-4.193-1.173-1.173-2.591-1.536-4.192-1.613C18.747 5.988 17.378 6 16 6c-1.381 0-2.75-.013-4.128.065-1.601.077-3.022.443-4.193 1.613-1.173 1.174-1.536 2.592-1.613 4.193C5.988 13.253 6 14.622 6 16c0 1.378-.013 2.75.065 4.128.077 1.6.443 3.022 1.613 4.193 1.174 1.173 2.592 1.536 4.193 1.613 1.381.078 2.75.065 4.128.065 1.38 0 2.75.013 4.128-.065 1.6-.077 3.021-.443 4.192-1.613 1.174-1.174 1.536-2.592 1.614-4.193.08-1.379.065-2.747.065-4.128zm-10.002 5.131A5.124 5.124 0 0110.867 16a5.124 5.124 0 015.13-5.131A5.124 5.124 0 0121.128 16a5.124 5.124 0 01-5.13 5.131zm5.341-9.274a1.197 1.197 0 01-1.198-1.198c0-.663.535-1.198 1.198-1.198a1.197 1.197 0 01.848 2.046 1.197 1.197 0 01-.848.35z" fill="#3C4563"/></symbol><symbol fill="none" xmlns="http://www.w3.org/2000/svg" viewBox="0 0 32 32" id="footer__twitter"><path d="M28 8.376a9.669 9.669 0 01-2.832.78 5.011 5.011 0 002.163-2.78c-.964.588-2.02 1-3.12 1.219a4.908 4.908 0 00-1.636-1.181A4.8 4.8 0 0020.616 6C17.891 6 15.7 8.266 15.7 11.047c0 .39.046.781.12 1.157-4.08-.219-7.72-2.219-10.14-5.28a5.109 5.109 0 00-.67 2.546c0 1.752.869 3.296 2.193 4.205a4.868 4.868 0 01-2.224-.642v.062c0 2.452 1.69 4.485 3.943 4.952-.423.113-.858.17-1.295.172a6.47 6.47 0 01-.93-.077c.624 2 2.438 3.453 4.598 3.5a9.701 9.701 0 01-6.106 2.157c-.412 0-.793-.015-1.188-.062A13.674 13.674 0 0011.554 26c9.045 0 13.994-7.686 13.994-14.358 0-.219 0-.438-.014-.657A10.748 10.748 0 0028 8.375z" fill="#3C4563"/></symbol><symbol fill="none" xmlns="http://www.w3.org/2000/svg" viewBox="0 0 36 36" id="logo"><path d="M0 4a4 4 0 014-4h24a4 4 0 014 4v4c0 13.255-10.745 24-24 24H4a4 4 0 01-4-4V4z" fill="#F59E0B"/><path d="M4 8a4 4 0 014-4h24a4 4 0 014 4v4c0 13.255-10.745 24-24 24H8a4 4 0 01-4-4V8z" fill="#4BE4C9"/></symbol></svg>