<svg width="64" height="66" viewBox="0 0 64 66" fill="none" xmlns="http://www.w3.org/2000/svg"><g clip-path="url(#clip0_370726_480)"><path d="M32.7875 29.5453C31.8 29.5453 30.9875 28.7203 30.9875 27.6891V6.63867C31 3.32578 33.775.644531 37.2.644531c3.425.0 6.2 2.694139 6.2 6.007029C43.4 7.66992 42.6 8.50781 41.6 8.50781S39.8 7.68281 39.8 6.65156c0-1.26328-1.175-2.29453-2.6125-2.29453S34.575 5.38828 34.575 6.65156V27.702C34.5875 28.7074 33.7875 29.5453 32.7875 29.5453z" fill="#f0bf5f"/><path d="M53.3875 34.9078C52.4 34.9078 51.5875 34.0828 51.5875 33.0516V6.63867C51.6 3.32578 54.375.644531 57.8.644531c3.425.0 6.2 2.681249 6.2 5.994139C64 7.65703 63.2 8.49492 62.2 8.49492c-.987500000000004.0-1.8-.825-1.8-1.85625.0-1.26328-1.175-2.29453-2.6125-2.29453S55.175 5.37539 55.175 6.63867V33.0516C55.1875 34.0699 54.3875 34.9078 53.3875 34.9078z" fill="#f0bf5f"/><path d="M42.5008 16.1133h-9.7C31.8133 16.1133 31.0008 15.2883 31.0008 14.257c0-1.0312.799999999999997-1.8562 1.8-1.8562h9.7C43.4883 12.4008 44.3008 13.2258 44.3008 14.257c0 1.0313-.8125 1.8563-1.8 1.8563z" fill="#f0bf5f"/><path d="M42.5008 29.5453h-9.7C31.8133 29.5453 31.0008 28.7203 31.0008 27.6891c0-1.0313.799999999999997-1.8563 1.8-1.8563h9.7C43.4883 25.8328 44.3008 26.6578 44.3008 27.6891 44.2883 28.7074 43.4883 29.5453 42.5008 29.5453z" fill="#f0bf5f"/><path d="M53.3875 22.8293h-9.7C42.7 22.8293 41.8875 22.0043 41.8875 20.9731c0-1.0313.799999999999997-1.8563 1.8-1.8563h9.7C54.375 19.1168 55.1875 19.9418 55.1875 20.9731c0 1.0312-.799999999999997 1.8562-1.8 1.8562z" fill="#f0bf5f"/><path d="M58.9625 48.3527c0 2.2172-2.5625 4.009-5.7375 4.009-3.1625.0-5.7375-1.7918-5.7375-4.009.0 2.2172-2.5625 4.009-5.7375 4.009-3.1625.0-5.7375-1.7918-5.7375-4.009H36.1c0 2.2172-2.5625 4.009-5.7375 4.009s-5.7375-1.7918-5.7375-4.009c0 2.2172-2.5625 4.009-5.7375 4.009-3.175.0-5.7375-1.7918-5.7375-4.009H13.2375c0 2.2172-2.5625 4.009-5.7375 4.009-3.175.0-5.7375-1.7918-5.7375-4.009V37.009c0 2.2172 2.5625 4.009 5.7375 4.009s5.7375-1.7918 5.7375-4.009H13.15c0 2.2172 2.5625 4.009 5.7375 4.009s5.7375-1.7918 5.7375-4.009c0 2.2172 2.5625 4.009 5.7375 4.009S36.1 39.2262 36.1 37.009H36.0125c0 2.2172 2.5625 4.009 5.7375 4.009s5.7375-1.7918 5.7375-4.009c0 2.2172 2.5625 4.009 5.7375 4.009 3.175.0 5.7375-1.7918 5.7375-4.009V48.3527z" fill="#cee8fa"/><path d="M53.225 54.2179C50.9 54.2179 48.8625 53.4445 47.4875 52.1941 46.1125 53.4445 44.075 54.2179 41.75 54.2179c-2.275.0-4.3125-.7605-5.6875-1.9851-1.375 1.2246-3.4125 1.9851-5.6875 1.9851C28.05 54.2179 26.0125 53.4445 24.6375 52.1941c-1.375 1.2504-3.4125 2.0238-5.7375 2.0238-2.275.0-4.3125-.7605-5.6875-1.9851-1.375 1.2375-3.4125 1.9851-5.6875 1.9851C3.3 54.2179.0 51.6398.0 48.3527V37.009c0-1.0184.8-1.8563 1.8-1.8563S3.6 35.9777 3.6 37.009c0 .9925 1.725 2.1527 3.9375 2.1527 2 0 3.5375-.889500000000005 3.875-1.7918C11.4 37.2539 11.4 37.125 11.4 37.009 11.4 35.9906 12.2 35.1527 13.2 35.1527H13.2875C14.275 35.1527 15.0875 35.9777 15.0875 37.009 15.0875 37.125 15.0875 37.2539 15.075 37.3699 15.4125 38.2722 16.95 39.1617 18.95 39.1617c2.2125.0 3.9375-1.1602 3.9375-2.1527.0-1.0184.800000000000001-1.8563 1.8-1.8563S26.4875 35.9777 26.4875 37.009c0 .9925 1.725 2.1527 3.9375 2.1527 2 0 3.5375-.889500000000005 3.875-1.7918C34.2875 37.2539 34.2875 37.125 34.2875 37.009c0-1.0184.799999999999997-1.8563 1.8-1.8563H36.175C37.1625 35.1527 37.975 35.9777 37.975 37.009 37.975 37.125 37.975 37.2539 37.9625 37.3699 38.3 38.2722 39.8375 39.1617 41.8375 39.1617c2.2125.0 3.9375-1.1602 3.9375-2.1527.0-1.0184.800000000000004-1.8563 1.8-1.8563C48.5625 35.1527 49.375 35.9777 49.375 37.009c0 .9925 1.725 2.1527 3.9375 2.1527S57.25 38.0015 57.25 37.009C57.25 35.9906 58.05 35.1527 59.05 35.1527S60.85 35.9777 60.85 37.009V48.3527C60.7625 51.6398 57.45 54.2179 53.225 54.2179zm-3.9375-5.8652c0 .992600000000003 1.725 2.1527 3.9375 2.1527s3.9375-1.1601 3.9375-2.1527V42.0234C56.025 42.5519 54.675 42.8613 53.225 42.8613 50.9 42.8613 48.8625 42.0879 47.4875 40.8375 46.1125 42.0879 44.075 42.8613 41.75 42.8613c-2.275.0-4.3125-.7605-5.6875-1.9852-1.375 1.2375-3.4125 1.9852-5.6875 1.9852C28.05 42.8613 26.0125 42.0879 24.6375 40.8375c-1.375 1.2504-3.4125 2.0238-5.7375 2.0238-2.275.0-4.3125-.7605-5.6875-1.9852-1.375 1.2375-3.4125 1.9852-5.6875 1.9852C6.075 42.8613 4.725 42.5519 3.5875 42.0234v6.3293C3.5875 49.3453 5.3125 50.5054 7.525 50.5054c2 0 3.5375-.889400000000002 3.875-1.7918C11.3875 48.5976 11.3875 48.4687 11.3875 48.3527c0-1.0184.800000000000001-1.8562 1.8-1.8562H13.275C14.2625 46.4965 15.075 47.3215 15.075 48.3527 15.075 48.4687 15.075 48.5976 15.0625 48.7136c.3375.9024 1.875 1.7918 3.875 1.7918 2.2125.0 3.9375-1.1601 3.9375-2.1527.0-1.0184.800000000000001-1.8562 1.8-1.8562S26.475 47.3215 26.475 48.3527C26.475 49.3453 28.2 50.5054 30.4125 50.5054c2 0 3.5375-.889400000000002 3.875-1.7918C34.275 48.5976 34.275 48.4687 34.275 48.3527c0-1.0184.800000000000004-1.8562 1.8-1.8562H36.1625C37.15 46.4965 37.9625 47.3215 37.9625 48.3527 37.9625 48.4687 37.9625 48.5976 37.95 48.7136 38.2875 49.616 39.825 50.5054 41.825 50.5054c2.2125.0 3.9375-1.1601 3.9375-2.1527.0-1.0184.799999999999997-1.8562 1.8-1.8562C48.4875 46.5093 49.2875 47.3343 49.2875 48.3527z" fill="#2d527c"/><path d="M41.7625 65.3555C39.4625 65.3555 37.4375 64.5949 36.075 63.3703 34.7 64.5949 32.675 65.3555 30.3875 65.3555 28.0625 65.3555 26.025 64.582 24.65 63.3316 23.275 64.582 21.2375 65.3555 18.9125 65.3555 14.6875 65.3555 11.3875 62.7773 11.3875 59.4902c0-1.0183.800000000000001-1.8562 1.8-1.8562H13.275C14.2625 57.634 15.075 58.459 15.075 59.4902 15.075 59.5933 15.0625 59.7094 15.05 59.8125 15.3625 60.7277 16.95 61.6558 18.9375 61.6558c2.2125.0 3.9375-1.1601 3.9375-2.1527.0-1.0183.800000000000001-1.8562 1.8-1.8562S26.475 58.4719 26.475 59.5031C26.475 60.4957 28.2 61.6558 30.4125 61.6558 32.375 61.6558 33.9375 60.7535 34.275 59.8512 34.2625 59.7351 34.2625 59.6191 34.2625 59.4902c0-1.0183.799999999999997-1.8562 1.8-1.8562H36.15C37.1375 57.634 37.95 58.459 37.95 59.4902 37.95 59.6062 37.95 59.7223 37.9375 59.8512 38.275 60.7535 39.85 61.6558 41.8 61.6558c2.21250000000001.0 3.9375-1.1601 3.9375-2.1527.0-1.0183.800000000000004-1.8562 1.8-1.8562C48.525 57.6469 49.3375 58.4719 49.3375 59.5031 49.2875 62.7902 45.9875 65.3555 41.7625 65.3555z" fill="#2d527c"/></g><defs><clipPath id="clip0_370726_480"><rect width="64" height="66" fill="#fff"/></clipPath></defs></svg>