<svg width="64" height="66" viewBox="0 0 64 66" fill="none" xmlns="http://www.w3.org/2000/svg"><path d="M54.025 49.7191H9.97503C8.96253 49.7191 8.15002 48.8812 8.15002 47.8371V45.8519C8.15002 32.291 18.85 21.2566 32 21.2566c2.4875.0 4.9375.3996 7.2875 1.173C40.25 22.7519 40.775 23.8089 40.475 24.8015c-.3125.9926-1.3375 1.534-2.3 1.2246C36.1875 25.3687 34.1125 25.0335 32 25.0335c-11.1375.0-20.2 9.3458-20.2 20.8313V45.9679H52.2V45.8648c0-5.5945-2.125-10.8539-5.975-14.7984C45.5125 30.3316 45.5 29.1457 46.2125 28.398 46.925 27.6632 48.075 27.6503 48.8 28.3851c4.55 4.6535 7.0625 10.8539 7.0625 17.4668v1.9852C55.85 48.8812 55.0375 49.7191 54.025 49.7191z" fill="#f0bf5f"/><path d="M32 24.5824c-1.0125.0-1.825-.837900000000001-1.825-1.882V17.3637c0-1.0442.8125-1.8821 1.825-1.8821S33.8251 16.3195 33.8251 17.3637v5.3367C33.8251 23.7445 33.0125 24.5824 32 24.5824z" fill="#f0bf5f"/><path d="M36.4751 18.8074h-8.95c-1.0125.0-1.825-.837900000000001-1.825-1.882.0-1.0442.8125-1.8821 1.825-1.8821h8.95c1.0125.0 1.825.837899999999999 1.825 1.8821.0 1.0441-.8125 1.882-1.825 1.882z" fill="#f0bf5f"/><path d="M47.9875 47.8371H16v7.9277H47.9875V47.8371z" fill="#cee8fa"/><path d="M48.0001 57.6469H16C14.9875 57.6469 14.175 56.809 14.175 55.7648V47.8371c0-1.0441.8125-1.882 1.825-1.882H48.0001c1.0125.0 1.825.837899999999998 1.825 1.882v7.9277c0 1.0442-.824999999999996 1.8821-1.825 1.8821zM17.8375 53.8828H46.1751V49.7191H17.8375V53.8828z" fill="#f0bf5f"/><path d="M54.2375 61.8106H9.76248c-2.125.0-3.85-1.7789-3.85-3.9704.0-2.1914 1.725-3.9703 3.85-3.9703H54.2375c2.125.0 3.85 1.7789 3.85 3.9703C58.075 60.0317 56.3625 61.8106 54.2375 61.8106z" fill="#cee8fa"/><path d="M54.2375 63.6926H9.76252c-3.125.0-5.675-2.6168-5.675-5.8523.0-3.2356 2.5375-5.8524 5.675-5.8524H54.2375c3.125.0 5.675 2.6297 5.675 5.8524C59.9 61.0758 57.3625 63.6926 54.2375 63.6926zM9.76252 55.7649C8.65002 55.7649 7.75002 56.693 7.75002 57.8403c0 1.1472.9 2.0753 2.0125 2.0753H54.2375C55.35 59.9156 56.25 58.9875 56.25 57.8403 56.25 56.693 55.35 55.7649 54.2375 55.7649H9.76252z" fill="#2d527c"/><path d="M32.0001 9.73243C30.9876 9.73243 30.175 8.89454 30.175 7.8504V4.18947c0-1.04415.8126-1.88204 1.8251-1.88204 1.0125.0 1.825.83789 1.825 1.88204V7.8504c0 1.04414-.8125 1.88203-1.825 1.88203z" fill="#2d527c"/><path d="M62.175 35.3074h-3.55C57.6125 35.3074 56.8 34.4695 56.8 33.4254 56.8 32.3813 57.6125 31.5434 58.625 31.5434h3.55C63.1875 31.5434 64 32.3813 64 33.4254 64 34.4695 63.1875 35.3074 62.175 35.3074z" fill="#2d527c"/><path d="M5.375 35.3074H1.825C.8125 35.3074.0 34.4695.0 33.4254.0 32.3813.8125 31.5434 1.825 31.5434h3.55C6.3875 31.5434 7.2 32.3813 7.2 33.4254 7.2 34.4695 6.3875 35.3074 5.375 35.3074z" fill="#2d527c"/><path d="M49.5375 17.2219C49.075 17.2219 48.6 17.0414 48.25 16.6676 47.5375 15.9328 47.5375 14.734 48.25 13.9992l2.5-2.5781c.712499999999999-.7348 1.875-.7348 2.5875.0C54.05 12.1559 54.05 13.3547 53.3375 14.0895l-2.5125 2.591C50.475 17.0414 50 17.2219 49.5375 17.2219z" fill="#2d527c"/><path d="M14.4625 17.2219C14 17.2219 13.525 17.0414 13.175 16.6676l-2.5125-2.591C9.95005 13.3418 9.95005 12.143 10.6625 11.4082c.7125-.7347 1.875-.7347 2.5875.0l2.5125 2.591C16.475 14.734 16.475 15.9328 15.7625 16.6676 15.4 17.0414 14.9375 17.2219 14.4625 17.2219z" fill="#2d527c"/></svg>