<svg width="66" height="66" viewBox="0 0 66 66" fill="none" xmlns="http://www.w3.org/2000/svg"><g clip-path="url(#clip0_370726_405)"><path d="M38.4527 18.4851H19.207C18.1758 18.4851 17.3379 17.6472 17.3379 16.616c0-1.0313.837899999999998-1.8691 1.8691-1.8691H38.4527c1.0313.0 1.8692.8378 1.8692 1.8691C40.3219 17.6472 39.484 18.4851 38.4527 18.4851z" fill="#2d527c"/><path d="M23.3191 49.4871H17.3766C7.79883 49.4871.0 41.6883.0 32.1105c0-6.3422 3.45469-12.1816 9.02344-15.2367C9.92578 16.3711 11.073 16.7062 11.5758 17.6215c.502700000000001.9023.1676 2.0496-.7477 2.5523-4.3699 2.3977-7.07693 6.9738-7.07693 11.9496.0 7.5152 6.11016 13.6254 13.62543 13.6254h5.9425c1.0313.0 1.8692.837899999999998 1.8692 1.8691C25.2012 48.6363 24.3504 49.4871 23.3191 49.4871z" fill="#2d527c"/><path d="M24.9176 63.2027c-8.5465.0-15.50744-6.9609-15.50744-15.5203.0-1.0312.83784-1.8691 1.86914-1.8691 1.0312.0 1.8691.837900000000005 1.8691 1.8691.0 6.484 5.2723 11.7691 11.7692 11.7691S36.6867 54.1793 36.6867 47.6824c0-6.484-5.2722-11.7691-11.7691-11.7691-3.2613.0-6.2906 1.3019-8.5336 3.6609C15.675 40.3219 14.4891 40.3605 13.7285 39.6387 12.9809 38.9297 12.9422 37.7437 13.6641 36.9832c2.9648-3.1195 6.9609-4.834 11.2535-4.834 8.5594.0 15.5203 6.9609 15.5203 15.5203.0 8.5594-6.9609 15.5332-15.5203 15.5332z" fill="#f0bf5f"/><path d="M49.5645 45.7875H38.1176C37.0864 45.7875 36.2485 44.9496 36.2485 43.9183 36.2485 42.8871 37.0864 42.0492 38.1176 42.0492H49.5645c1.0312.0 1.8691.837899999999998 1.8691 1.8691C51.4336 44.9496 50.5957 45.7875 49.5645 45.7875z" fill="#f0bf5f"/><path d="M61.8105 53.3285H38.5559C37.5246 53.3285 36.6867 52.4906 36.6867 51.4593c0-1.0312.837899999999998-1.8691 1.8692-1.8691H61.8105C62.0555 49.5902 62.2488 49.3968 62.2488 49.1519V38.5043C62.2488 38.1433 61.9523 37.8597 61.6043 37.8597H59.9801C59.6191 37.8597 59.3355 38.1562 59.3355 38.5043v5.0015C59.3355 44.5371 58.4977 45.375 57.4664 45.375 56.4352 45.375 55.5973 44.5371 55.5973 43.5058V38.5043C55.5973 36.0808 57.5695 34.1086 59.993 34.1086H61.6172C64.0406 34.1086 66.0129 36.0808 66.0129 38.5043V49.1519C66 51.4464 64.118 53.3285 61.8105 53.3285z" fill="#f0bf5f"/><path d="M24.9176 52.9418c2.9474.0 5.3367-2.3894 5.3367-5.3367.0-2.9474-2.3893-5.3368-5.3367-5.3368-2.9474.0-5.3368 2.3894-5.3368 5.3368.0 2.9473 2.3894 5.3367 5.3368 5.3367z" fill="#cee8fa"/><path d="M24.9176 54.8109C20.9472 54.8109 17.7117 51.5754 17.7117 47.6051c0-3.9704 3.2355-7.2059 7.2059-7.2059 3.9703.0 7.2058 3.2355 7.2058 7.2059.0 3.9703-3.2226 7.2058-7.2058 7.2058zm0-10.6605c-1.9078.0-3.4547 1.5468-3.4547 3.4547.0 1.9078 1.5469 3.4547 3.4547 3.4547 1.9078.0 3.4547-1.5469 3.4547-3.4547.0-1.9079-1.5469-3.4547-3.4547-3.4547z" fill="#f0bf5f"/><path d="M27.8953 24.5695V8.64959c0-2.19141 1.7789-3.97031 3.9703-3.97031h28.282C62.3391 4.67928 64.118 6.45818 64.118 8.64959V24.5695C64.118 26.7609 62.3391 28.5398 60.1476 28.5398H31.8785c-2.2043.0-3.9832-1.7789-3.9832-3.9703z" fill="#cee8fa"/><path d="M60.1476 30.4219H31.8785c-3.2227.0-5.8523-2.6297-5.8523-5.8523V8.64963c0-3.22266 2.6296-5.85234 5.8523-5.85234h28.282c3.2227.0 5.8524 2.62968 5.8524 5.85234V24.5696C66 27.7922 63.3703 30.4219 60.1476 30.4219zM31.8785 6.54846c-1.1602.0-2.1012.94101-2.1012 2.10117V24.5696c0 1.1601.940999999999999 2.1011 2.1012 2.1011h28.282c1.1602.0 2.1012-.940999999999999 2.1012-2.1011V8.64963C62.2617 7.48947 61.3207 6.54846 60.1605 6.54846H31.8785z" fill="#2d527c"/><path d="M44.4468 17.7118H43.8152V16.5645C43.8152 15.9071 43.1578 15.4817 42.1394 15.4817c-1.0183.0-1.6758.4254-1.6758 1.0828v1.1473H39.3164l3.2355-6.4969c.0515999999999934-.1289.116-.2836.116-.4383C42.6679 9.9645 41.5851 9.46176 40.9922 9.46176c-.6188.0-1.1215.309380000000001-1.4051.86364l-4.3828 8.6239C35.0496 19.2329 35.0238 19.4778 35.0238 19.6067 35.0238 20.3286 35.5008 20.8184 36.1968 20.8184h4.2668v1.8305c0 .7605.863700000000002 1.0957 1.6758 1.0957C42.9386 23.7446 43.8152 23.3965 43.8152 22.6489V20.8184H44.4468C45.014 20.8184 45.5425 20.0579 45.5425 19.2586 45.5425 18.511 45.1945 17.7118 44.4468 17.7118z" fill="#2d527c"/><path d="M55.8937 17.7118H55.2621V16.5645C55.2621 15.9071 54.6046 15.4817 53.5863 15.4817c-1.0184.0-1.6758.4254-1.6758 1.0828v1.1473H50.7632l3.2485-6.4969c.0515000000000043-.1289.116-.2836.116-.4383C54.1277 9.9645 53.0449 9.46176 52.4519 9.46176 51.8332 9.46176 51.3304 9.77114 51.0468 10.3254L46.664 18.9493C46.5093 19.2329 46.4836 19.4778 46.4836 19.6067 46.4836 20.3286 46.9605 20.8184 47.6566 20.8184h4.2668v1.8305c0 .7605.863700000000002 1.0957 1.6758 1.0957C54.4113 23.7446 55.275 23.3965 55.275 22.6489V20.8184H55.9066c.5672.0 1.0957-.7605 1.0957-1.5598C57.0023 18.511 56.6543 17.7118 55.8937 17.7118z" fill="#2d527c"/></g><defs><clipPath id="clip0_370726_405"><rect width="66" height="66" fill="#fff"/></clipPath></defs></svg>