<svg width="67" height="66" viewBox="0 0 67 66" fill="none" xmlns="http://www.w3.org/2000/svg"><g clip-path="url(#clip0_370726_440)"><path d="M40.8281 49.0746H11.0707V35.0625c0-4.9629 4.0828-8.9848 9.1209-8.9848H40.8281V49.0746z" fill="#cee8fa"/><path d="M40.8281 50.9437H11.0707C10.0238 50.9437 9.17322 50.1058 9.17322 49.0746V35.0625c0-5.9813 4.94648-10.8539 11.01838-10.8539H40.8281c1.0469.0 1.8975.837900000000001 1.8975 1.8691V49.0746c0 1.03120000000001-.8506 1.8691-1.8975 1.8691zm-27.86-3.7383H38.9176V27.9597H20.1785c-3.9781.0-7.2104 3.184-7.2104 7.1028V47.2054z" fill="#2d527c"/><path d="M60.4439 34.2633H6.55605C2.94434 34.2633.0 31.3629.0 27.7922V21.9785c0-3.5578 2.94434-6.4582 6.55605-6.4582H20.1262c1.0468.0 1.8974.837899999999999 1.8974 1.8691.0 1.0313-.8506 1.8692-1.8974 1.8692H6.55605c-1.51796.0-2.76113 1.2246-2.76113 2.7199v5.8137c0 1.4953 1.24317 2.7199 2.76113 2.7199H60.4309c1.5179.0 2.7611-1.2246 2.7611-2.7199V21.9785c0-1.4953-1.2432-2.7199-2.7611-2.7199H33.5C32.4531 19.2586 31.6025 18.4207 31.6025 17.3894c0-1.0312.8506-1.8691 1.8975-1.8691H60.4439c3.6118.0 6.5561 2.9004 6.5561 6.4582v5.8137c0 3.5707-2.9443 6.4711-6.5561 6.4711z" fill="#f0bf5f"/><path d="M33.5 19.1555c-.588900000000002.0-1.1516-.2578-1.5311-.7606C31.3408 17.557 31.524 16.384 32.3615 15.7781c1.7928-1.3148 5.5092-4.7695 5.5092-7.07693.0-2.50078-1.8451-4.30547-4.3707-4.30547-2.4078.0-4.3707 1.9336-4.3707 4.30547.0 1.03125-.8506 1.86913-1.8975 1.86913s-1.8974-.83788-1.8974-1.86913V8.53359C25.3344 8.48203 25.3343 8.43047 25.3474 8.37891 25.5045 4.07344 29.1031.644531 33.5.644531c4.6586.0 8.1787 3.467579 8.1787 8.056639.0 4.82113-6.3205 9.56483-7.0533 10.09333C34.2851 19.0395 33.8926 19.1555 33.5 19.1555z" fill="#f0bf5f"/><path d="M47.5412 61.2562H22.377C21.3301 61.2562 20.4795 60.4183 20.4795 59.3871V49.0875c0-1.0313.8506-1.8692 1.8975-1.8692H55.9424c1.0469.0 1.8974.837899999999998 1.8974 1.8692.0 1.0312-.850499999999997 1.8691-1.8974 1.8691H24.2744v6.5613H47.5412C48.5881 57.5179 49.4387 58.3558 49.4387 59.3871 49.4387 60.4183 48.5881 61.2562 47.5412 61.2562z" fill="#2d527c"/><path d="M55.9293 49.0746V33.5672c0-4.1379-3.4024-7.4895-7.6029-7.4895H22.377V49.0746H55.9293z" fill="#cee8fa"/><path d="M55.9293 50.9437H22.377C21.3301 50.9437 20.4795 50.1059 20.4795 49.0746V26.0906c0-1.0312.8506-1.8691 1.8975-1.8691H48.3395c5.2343.0 9.5003 4.2023 9.5003 9.3586V49.0875c0 1.0184-.863599999999998 1.8562-1.9105 1.8562zM24.2744 47.2055H54.0318V33.5672c0-3.0938-2.5517-5.6075-5.6923-5.6075H24.2744V47.2055z" fill="#2d527c"/><path d="M22.377 65.3554C21.3301 65.3554 20.4795 64.5175 20.4795 63.4863V59.3871c0-1.03129999999999.8506-1.8692 1.8975-1.8692 1.0468.0 1.8974.837900000000005 1.8974 1.8692v4.0992c0 1.0312-.8506 1.8691-1.8974 1.8691z" fill="#2d527c"/><path d="M55.9293 65.3554C54.8824 65.3554 54.0319 64.5176 54.0319 63.4863V47.8758c0-1.0313.850499999999997-1.8692 1.8974-1.8692S57.8268 46.8445 57.8268 47.8758V63.4863C57.8399 64.5176 56.9762 65.3554 55.9293 65.3554z" fill="#2d527c"/><path d="M47.5412 65.3554C46.4943 65.3554 45.6437 64.5175 45.6437 63.4863V59.3871c0-1.03129999999999.8506-1.8692 1.8975-1.8692C48.5881 57.5179 49.4387 58.3558 49.4387 59.3871v4.0992c0 1.0312-.8506 1.8691-1.89749999999999 1.8691z" fill="#2d527c"/><path d="M39.1531 65.3554C38.1063 65.3554 37.2557 64.5175 37.2557 63.4863V59.3871c0-1.03129999999999.8506-1.8692 1.8974-1.8692C40.2 57.5179 41.0506 58.3558 41.0506 59.3871v4.0992c0 1.0312-.8506 1.8691-1.8975 1.8691z" fill="#2d527c"/><path d="M30.765 65.3554C29.7181 65.3554 28.8676 64.5175 28.8676 63.4863V59.3871c0-1.03129999999999.8505-1.8692 1.8974-1.8692S32.6625 58.3558 32.6625 59.3871v4.0992c0 1.0312-.8506 1.8691-1.8975 1.8691z" fill="#2d527c"/></g><defs><clipPath id="clip0_370726_440"><rect width="67" height="66" fill="#fff"/></clipPath></defs></svg>