<svg width="64" height="66" viewBox="0 0 64 66" fill="none" xmlns="http://www.w3.org/2000/svg"><g clip-path="url(#clip0_370726_458)"><path d="M37.95 58.4074H20.2875C11.375 58.4074 4.125 50.9308 4.125 41.7398V25.9359c0-1.0312.8125-1.8562 1.8-1.8562S7.725 24.9176 7.725 25.9359V41.7527c0 7.1414 5.625 12.9422 12.55 12.9422H37.9375c1 0 1.8.837900000000005 1.8 1.8563C39.75 57.5824 38.95 58.4074 37.95 58.4074z" fill="#2d527c"/><path d="M48.4625 57.5824c-.75.0-1.4375-.476900000000001-1.7-1.2504C46.4375 55.3652 46.925 54.3082 47.8625 53.9601 52.8875 52.1426 56.2625 47.2312 56.2625 41.7398V39.8707c0-1.0313.8125-1.8563 1.8-1.8563s1.8.837899999999998 1.8 1.8563v1.8691c0 7.0641-4.3375 13.3934-10.8125 15.7266C48.8625 57.5437 48.6625 57.5824 48.4625 57.5824z" fill="#2d527c"/><path d="M58.5875 32.0719H5.4125c-1.9875.0-3.6-1.6629-3.6-3.7125.0-2.0496 1.6125-3.7125 3.6-3.7125H58.6c1.9875.0 3.6 1.6629 3.6 3.7125.0 2.0496-1.6125 3.7125-3.6125 3.7125z" fill="#cee8fa"/><path d="M58.5875 33.9281H5.4125C2.425 33.9281.0 31.4274.0 28.3465s2.425-5.5816 5.4125-5.5816H58.6c2.9875.0 5.4125 2.5007 5.4125 5.5816s-2.4375 5.5816-5.425 5.5816zM5.4125 26.4903c-1 0-1.8.837799999999998-1.8 1.8562s.8125 1.8562 1.8 1.8562H58.6c1 0 1.8-.837800000000001 1.8-1.8562s-.8125-1.8562-1.8-1.8562H5.4125z" fill="#2d527c"/><path d="M14.2375 61.9008c1.7397.0 3.15-1.4544 3.15-3.2485s-1.4103-3.2484-3.15-3.2484c-1.7397.0-3.15 1.4543-3.15 3.2484s1.4103 3.2485 3.15 3.2485z" fill="#cee8fa"/><path d="M14.2375 63.7699c-2.7375.0-4.96248-2.2945-4.96248-5.1176C9.27502 55.8293 11.5 53.5347 14.2375 53.5347S19.2 55.8293 19.2 58.6523c0 2.8231-2.225 5.1176-4.9625 5.1176zm0-6.5098c-.75.0-1.35.631700000000002-1.35 1.3922C12.8875 59.4129 13.5 60.0445 14.2375 60.0445 14.975 60.0445 15.5875 59.4129 15.5875 58.6523c0-.760499999999993-.6-1.3922-1.35-1.3922z" fill="#2d527c"/><path d="M49.7626 61.9008c1.7397.0 3.15-1.4544 3.15-3.2485s-1.4103-3.2484-3.15-3.2484-3.1501 1.4543-3.1501 3.2484 1.4104 3.2485 3.1501 3.2485z" fill="#cee8fa"/><path d="M49.7626 63.7699c-2.7375.0-4.9626-2.2945-4.9626-5.1176C44.8 55.8293 47.0251 53.5347 49.7626 53.5347c2.7375.0 4.9625 2.2946 4.9625 5.1176.0 2.8231-2.2375 5.1176-4.9625 5.1176zm0-6.5098c-.75.0-1.35.631700000000002-1.35 1.3922C48.4126 59.4129 49.0251 60.0445 49.7626 60.0445 50.5001 60.0445 51.1126 59.4129 51.1126 58.6523 51.1126 57.8918 50.5001 57.2601 49.7626 57.2601z" fill="#2d527c"/><path d="M40.425 11.434H23.575c-1 0-1.8-.837899999999999-1.8-1.85627.0-1.01836.8125-1.85625 1.8-1.85625H40.4375c1 0 1.8.83789 1.8 1.85625.0 1.01837-.8125 1.85627-1.8125 1.85627z" fill="#f0bf5f"/><path d="M41.0125 15.0562c-1 0-1.8-.837900000000001-1.8-1.8562V4.08631c0-1.03125.8125-1.85625 1.8-1.85625.987499999999997.0 1.8.83789 1.8 1.85625V13.2c0 1.0312-.799999999999997 1.8562-1.8 1.8562z" fill="#f0bf5f"/><path d="M44.2625 5.95562H37.775c-1 0-1.8-.83789-1.8-1.85625.0-1.01836.8125-1.85625 1.8-1.85625h6.4875c1 0 1.8.83789 1.8 1.85625.0 1.01836-.8125 1.85625-1.8 1.85625z" fill="#f0bf5f"/><path d="M22.9875 15.0562c-1 0-1.8-.837900000000001-1.8-1.8562V4.08631c0-1.03125.8125-1.85625 1.8-1.85625s1.8.83789 1.8 1.85625V13.2c0 1.0312-.800000000000001 1.8562-1.8 1.8562z" fill="#f0bf5f"/><path d="M26.225 5.95748H19.7375c-1 0-1.8-.837890000000001-1.8-1.85625.0-1.01836.8125-1.85625 1.8-1.85625H26.225c1 0 1.8.83789 1.8 1.85625C28.025 5.11959 27.225 5.95748 26.225 5.95748z" fill="#f0bf5f"/><path d="M32 19.3359C31 19.3359 30.2 18.498 30.2 17.4797V9.75818c0-1.03125.8125-1.85625 1.8-1.85625s1.7999.83789 1.7999 1.85625V17.4797C33.7999 18.498 33 19.3359 32 19.3359z" fill="#f0bf5f"/><path d="M24.4625 43.1578H14.75c-1.225.0-2.225-1.0312-2.225-2.2945V24.6211h14.15V40.8633C26.675 42.1395 25.6875 43.1578 24.4625 43.1578z" fill="#cee8fa"/><path d="M24.4625 45.027H14.75c-2.2125.0-4.025-1.8563-4.025-4.1508V24.634c0-1.0312.8125-1.8562 1.8-1.8562h14.15c1 0 1.8.837800000000001 1.8 1.8562V40.8762C28.4875 43.1578 26.675 45.027 24.4625 45.027zM14.3375 26.4903V40.8762C14.3375 41.1082 14.525 41.3016 14.75 41.3016h9.7125C24.6875 41.3016 24.875 41.1082 24.875 40.8762V26.4903H14.3375z" fill="#2d527c"/></g><defs><clipPath id="clip0_370726_458"><rect width="64" height="66" fill="#fff"/></clipPath></defs></svg>