<svg width="64" height="66" viewBox="0 0 64 66" fill="none" xmlns="http://www.w3.org/2000/svg"><path d="M58.2375 61.2692h-8.8c-.9375.0-1.7-.7864-1.7-1.7532S48.5 57.7629 49.4375 57.7629h8.8c1.3125.0 2.375-1.0957 2.375-2.4492V23.4867c0-1.3535-1.0625-2.4492-2.375-2.4492h-41c-1.3125.0-2.375 1.0957-2.375 2.4492V55.3395c0 1.3535 1.0625 2.4492 2.375 2.4492h22.875c.9375.0 1.7.786300000000004 1.7 1.7531S41.05 61.2949 40.1125 61.2949H17.2375c-3.175.0-5.7625-2.6683-5.7625-5.9425V23.4867c0-3.2742 2.5875-5.9425 5.7625-5.9425h41c3.175.0 5.7625 2.6683 5.7625 5.9425V55.3395c0 3.2613-2.5875 5.9297-5.7625 5.9297z" fill="#2d527c"/><path d="M23.8375 53.1094c-1.625.0-2.9625-1.3793-2.9625-3.0551V28.759c0-1.6758 1.3375-3.0551 2.9625-3.0551S26.8 27.0832 26.8 28.759V50.0543C26.7875 51.7301 25.4625 53.1094 23.8375 53.1094z" fill="#cee8fa"/><path d="M23.8375 54.8496c-2.5625.0-4.65-2.1527-4.65-4.79530000000001V28.759c0-2.6426 2.0875-4.7953 4.65-4.7953s4.65 2.1527 4.65 4.7953V50.0543C28.4875 52.6969 26.4 54.8496 23.8375 54.8496zm0-27.3926C23.1375 27.457 22.575 28.0371 22.575 28.759V50.0543c0 .721900000000005.5625 1.3019 1.2625 1.3019C24.5375 51.3562 25.1 50.7762 25.1 50.0543V28.759C25.1 28.0371 24.525 27.457 23.8375 27.457z" fill="#f0bf5f"/><path d="M37.7375 53.1094c-1.625.0-2.9625-1.3793-2.9625-3.0551V28.759c0-1.6758 1.3375-3.0551 2.9625-3.0551S40.7 27.0832 40.7 28.759V50.0543C40.7 51.7301 39.375 53.1094 37.7375 53.1094z" fill="#cee8fa"/><path d="M37.7375 54.8496c-2.5625.0-4.65-2.1527-4.65-4.79530000000001V28.759c0-2.6426 2.0875-4.7953 4.65-4.7953S42.3875 26.1164 42.3875 28.759V50.0543C42.4 52.6969 40.3125 54.8496 37.7375 54.8496zm0-27.3926C37.0375 27.457 36.475 28.0371 36.475 28.759V50.0543c0 .721900000000005.5625 1.3019 1.2625 1.3019C38.4375 51.3562 39 50.7762 39 50.0543V28.759C39 28.0371 38.4375 27.457 37.7375 27.457z" fill="#f0bf5f"/><path d="M51.65 53.1094c-1.625.0-2.9625-1.3793-2.9625-3.0551V28.759c0-1.6758 1.3375-3.0551 2.9625-3.0551s2.9625 1.3793 2.9625 3.0551V50.0543c0 1.6758-1.3375 3.0551-2.9625 3.0551z" fill="#cee8fa"/><path d="M51.65 54.8496C49.0875 54.8496 47 52.6969 47 50.0543V28.759c0-2.6426 2.0875-4.7953 4.65-4.7953s4.65 2.1527 4.65 4.7953V50.0543C56.3 52.6969 54.2125 54.8496 51.65 54.8496zm0-27.3926C50.95 27.457 50.3875 28.0371 50.3875 28.759V50.0543C50.3875 50.7762 50.95 51.3562 51.65 51.3562 52.35 51.3562 52.9125 50.7762 52.9125 50.0543V28.759C52.9125 28.0371 52.35 27.457 51.65 27.457z" fill="#f0bf5f"/><path d="M13.175 29.7129H7.28746c-.9375.0-1.7-.786300000000001-1.7-1.7531.0-.966800000000003.7625-1.7532 1.7-1.7532H13.175c.9375.0 1.7.786399999999997 1.7 1.7532C14.875 28.9266 14.1125 29.7129 13.175 29.7129z" fill="#2d527c"/><path d="M13.175 52.5938H7.28746c-.9375.0-1.7-.7864-1.7-1.7532s.7625-1.7531 1.7-1.7531H13.175c.9375.0 1.7.786300000000004 1.7 1.7531S14.1125 52.5938 13.175 52.5938z" fill="#2d527c"/><path d="M5.92498 32.4199c-.9375.0-1.7-.786299999999997-1.7-1.7531V11.9754C4.22498 11.0086 4.98748 10.2223 5.92498 10.2223s1.7.799199999999999 1.7 1.7531V30.6668c0 .966800000000003-.7625 1.7531-1.7 1.7531z" fill="#f0bf5f"/><path d="M5.92498 61.2691c-.9375.0-1.7-.786300000000004-1.7-1.7531V39.4066C4.22498 38.4398 4.98748 37.6535 5.92498 37.6535s1.7.786299999999997 1.7 1.7531V59.516c0 .966799999999999-.7625 1.7531-1.7 1.7531z" fill="#2d527c"/><path d="M10.175 6.48396H1.70001V15.9199H10.175V6.48396z" fill="#cee8fa"/><path d="M10.1625 17.6602H1.7c-.9375.0-1.7-.7864-1.7-1.7531V6.48401C0 5.51721.7625 4.73088 1.7 4.73088h8.475c.9375.0 1.7.78633 1.7 1.75313V15.9199C11.8625 16.8738 11.1 17.6602 10.1625 17.6602zm-6.775-3.4934H8.475V8.22424H3.3875V14.1668z" fill="#2d527c"/></svg>