<svg width="67" height="66" viewBox="0 0 67 66" fill="none" xmlns="http://www.w3.org/2000/svg"><path d="M60.5094 61.5527H6.49062C2.91816 61.5527.0 58.691.0 55.159V10.841C0 7.30898 2.91816 4.44727 6.49062 4.44727H41.9404c1.02070000000001.0 1.8451.8121 1.8451 1.81757C43.7855 7.27031 42.9611 8.08242 41.9404 8.08242H6.49062c-1.54414.0-2.80039 1.2375-2.80039 2.75858V55.159c0 1.5211 1.25625 2.7586 2.80039 2.7586H60.5094c1.5441.0 2.8004-1.2375 2.8004-2.7586V10.841c0-1.52108-1.2563-2.75858-2.8004-2.75858H52.5793C51.5586 8.08242 50.7342 7.27031 50.7342 6.26484 50.7342 5.25937 51.5586 4.44727 52.5793 4.44727h7.9301C64.0949 4.44727 67 7.32187 67 10.841V55.159c0 3.532-2.9182 6.3937-6.4906 6.3937z" fill="#2d527c"/><path d="M53.8748 53.5348H18.1371C17.1164 53.5348 16.292 52.7227 16.292 51.7172c0-1.0055.824399999999997-1.8176 1.8451-1.8176H53.8748c.706699999999998.0 1.2824-.5672 1.2824-1.2633V17.3766C55.1572 16.6805 54.5815 16.1133 53.8748 16.1133H18.1371C17.1164 16.1133 16.292 15.3012 16.292 14.2957S17.1164 12.4781 18.1371 12.4781H53.8748c2.7481.0 4.9857 2.2043 4.9857 4.9113V48.6363c0 2.6942-2.2376 4.8985-4.9857 4.8985z" fill="#2d527c"/><path d="M9.98461 53.5348C8.96391 53.5348 8.1395 52.7227 8.1395 51.7172V14.2828c0-1.0054.82441-1.8176 1.84511-1.8176C11.0053 12.4652 11.8297 13.2774 11.8297 14.2828V51.7172C11.8428 52.7227 11.0053 53.5348 9.98461 53.5348z" fill="#2d527c"/><path d="M42.6733 47.502C34.56 47.502 27.9516 40.9922 27.9516 33c0-7.9922 6.6084-14.502 14.7217-14.502 8.1132.0 14.7216 6.5098 14.7216 14.502S50.7865 47.502 42.6733 47.502zm0-25.3688c-6.085.0-11.0315 4.8727-11.0315 10.8668s4.9465 10.8668 11.0315 10.8668C48.7582 43.8668 53.7047 38.9941 53.7047 33c0-5.9941-4.9465-10.8668-11.0314-10.8668zm0 17.4281c-3.6772.0-6.6608-2.939-6.6608-6.5613.0-3.6223 2.9836-6.5613 6.6608-6.5613C46.3504 26.4387 49.334 29.3777 49.334 33 49.334 36.6223 46.3504 39.5613 42.6733 39.5613zm0-9.4875c-1.6358.0-2.9706 1.3149-2.9706 2.9262s1.3348 2.9262 2.9706 2.9262c1.6357.0 2.9705-1.3149 2.9705-2.9262s-1.3348-2.9262-2.9705-2.9262z" fill="#f0bf5f"/><path d="M18.124 39.7805H9.98453v5.891H18.124v-5.891z" fill="#cee8fa"/><path d="M18.1372 47.4891H9.98461C8.96391 47.4891 8.1395 46.677 8.1395 45.6715v-5.891C8.1395 38.775 8.96391 37.9629 9.98461 37.9629H18.1241C19.1448 37.9629 19.9692 38.775 19.9692 39.7805v5.891C19.9823 46.677 19.1579 47.4891 18.1372 47.4891zm-6.2944-3.6352H16.292V41.598H11.8428v2.2559z" fill="#2d527c"/><path d="M18.124 20.3285H9.98453v5.891H18.124v-5.891z" fill="#cee8fa"/><path d="M18.1372 28.0371H9.98461C8.96391 28.0371 8.1395 27.225 8.1395 26.2195v-5.891c0-1.0055.82441-1.8176 1.84511-1.8176H18.1241c1.0207.0 1.8451.812100000000001 1.8451 1.8176v5.891C19.9823 27.225 19.1579 28.0371 18.1372 28.0371zm-6.2944-3.6352H16.292V22.1461H11.8428v2.2558z" fill="#2d527c"/><path d="M33.9842 43.377C33.5131 43.377 33.042 43.1965 32.6756 42.8484 31.9559 42.1395 31.9559 40.9793 32.6756 40.2703l5.2867-5.2078C38.6821 34.3535 39.8598 34.3535 40.5795 35.0625 41.2993 35.7715 41.2993 36.9316 40.5795 37.6406l-5.2867 5.2078C34.9264 43.1965 34.4553 43.377 33.9842 43.377z" fill="#f0bf5f"/><path d="M46.4159 31.1308C45.9448 31.1308 45.4737 30.9504 45.1073 30.6023 44.3875 29.8933 44.3875 28.7332 45.1073 28.0242l4.9464-4.8726c.719799999999999-.709 1.8975-.709 2.6172.0C53.3907 23.8605 53.3907 25.0207 52.6709 25.7297l-4.9464 4.8726C47.3711 30.9504 46.887 31.1308 46.4159 31.1308z" fill="#f0bf5f"/><path d="M38.8391 31.0406C38.368 31.0406 37.8969 30.8601 37.5305 30.5121l-4.8549-4.7824C31.9559 25.0207 31.9559 23.8605 32.6756 23.1516 33.3954 22.4426 34.5731 22.4426 35.2928 23.1516l4.8549 4.7824C40.8674 28.643 40.8674 29.8031 40.1477 30.5121 39.7944 30.873 39.3102 31.0406 38.8391 31.0406z" fill="#f0bf5f"/><path d="M51.3624 43.3769C50.8913 43.3769 50.4202 43.1964 50.0538 42.8484L45.1335 38.0015C44.4137 37.2925 44.4137 36.1324 45.1335 35.4234 45.8532 34.7144 47.0309 34.7144 47.7506 35.4234l4.9204 4.8469C53.3907 40.9793 53.3907 42.1394 52.671 42.8484 52.3045 43.1964 51.8335 43.3769 51.3624 43.3769z" fill="#f0bf5f"/></svg>