<svg width="66" height="66" viewBox="0 0 66 66" fill="none" xmlns="http://www.w3.org/2000/svg"><g clip-path="url(#clip0_370726_530)"><path d="M15.6364 60.3152H11.1891C10.1966 60.3152 9.39734 59.516 9.39734 58.5234c0-.992600000000003.79926-1.7918 1.79176-1.7918h4.4473C16.629 56.7316 17.4282 57.5308 17.4282 58.5234 17.4282 59.516 16.629 60.3152 15.6364 60.3152z" fill="#f0bf5f"/><path d="M64.2083 60.3152h-4.718C58.4977 60.3152 57.6985 59.516 57.6985 58.5234 57.6985 57.5308 58.4977 56.7316 59.4903 56.7316h4.718C65.2008 56.7316 66 57.5308 66 58.5234 66 59.516 65.2008 60.3152 64.2083 60.3152z" fill="#f0bf5f"/><path d="M62.2361 60.0961H59.4904C58.4978 60.0961 57.6986 59.2969 57.6986 58.3043 57.6986 57.3117 58.4978 56.5125 59.4904 56.5125H60.4443V55.7262c0-3.661-1.5598-6.6129-4.5117-8.5465-2.1528-1.4051-4.8856-2.1527-7.902-2.1527H21.9013c-2.3848.0-4.473 1.6886-4.9629 4.0347l-1.5726 7.4508H15.9072c.9925.0 1.7918.799199999999999 1.7918 1.7918C17.699 59.2969 16.8997 60.0961 15.9072 60.0961H13.1615C12.62 60.0961 12.1044 59.8512 11.7693 59.4387 11.4341 59.0133 11.2923 58.4719 11.4083 57.9434l2.0239-9.6164c.8378-3.9833 4.4086-6.8836 8.482-6.8836H48.0435C51.756 41.4434 55.172 42.3844 57.9048 44.1762c3.9574 2.591 6.136 6.6902 6.136 11.55v2.5781C64.0279 59.2969 63.2286 60.0961 62.2361 60.0961z" fill="#f0bf5f"/><path d="M41.959 60.0961H28.282c-.9925.0-1.7918-.799199999999999-1.7918-1.7918C26.4902 57.3117 27.2895 56.5125 28.282 56.5125H41.9719C42.9645 56.5125 43.7637 57.3117 43.7637 58.3043 43.7637 59.2969 42.9516 60.0961 41.959 60.0961z" fill="#f0bf5f"/><path d="M48.0305 43.2352C50.7375 43.2352 53.277 43.7895 55.4297 44.8465L52.916 33.9539C52.2199 31.2985 49.8094 29.4422 47.0637 29.4422H31.0922c-2.4492.0-4.6535 1.4695-5.5816 3.7383L21.7594 43.2352H48.0305z" fill="#cee8fa"/><path d="M55.4296 46.6383C55.1589 46.6383 54.8882 46.5738 54.6433 46.4578 52.7355 45.5297 50.4409 45.027 48.0304 45.027H21.7593c-.593.0-1.1344-.2836-1.4696-.773499999999999C19.9546 43.7766 19.8772 43.1578 20.0835 42.6035l3.7512-10.0547C23.8476 32.5231 23.8476 32.5102 23.8605 32.4844c1.2117-2.9391 4.0605-4.8469 7.2445-4.8469H47.0765c3.5578.0 6.6773 2.3977 7.5797 5.8395C54.6562 33.4899 54.669 33.5156 54.669 33.5285l2.5137 10.8926C57.3374 45.0914 57.0925 45.8004 56.5511 46.2258 56.2288 46.5094 55.8292 46.6383 55.4296 46.6383zM24.3503 41.4434h23.693C49.7448 41.4434 51.3948 41.6496 52.9546 42.0492l-1.766-7.657C50.6858 32.5359 48.9972 31.2469 47.0765 31.2469H31.0921c-1.7145.0-3.2484 1.0183-3.9188 2.6039l-2.823 7.5926z" fill="#f0bf5f"/><path d="M41.9589 52.568C40.9663 52.568 40.1671 51.7688 40.1671 50.7762V30.1254c0-.9926.799199999999999-1.7918 1.7918-1.7918S43.7507 29.1328 43.7507 30.1254V50.7633C43.7507 51.7688 42.9515 52.568 41.9589 52.568z" fill="#f0bf5f"/><path d="M54.463 64.8656c-3.9188.0-7.1028-3.184-7.1028-7.1027.0-3.9188 3.184-7.1027 7.1028-7.1027 3.9187.0 7.1027 3.18389999999999 7.1027 7.1027.0 3.9187-3.184 7.1027-7.1027 7.1027zm0-10.6219C52.5294 54.2437 50.9438 55.8164 50.9438 57.7629S52.5165 61.282 54.463 61.282C56.3966 61.282 57.9821 59.7094 57.9821 57.7629S56.3966 54.2437 54.463 54.2437z" fill="#2d527c"/><path d="M20.8441 64.8656c-3.9188.0-7.1028-3.184-7.1028-7.1027.0-3.9188 3.184-7.1027 7.1028-7.1027 3.9187.0 7.1027 3.18389999999999 7.1027 7.1027C27.9597 61.6816 24.7628 64.8656 20.8441 64.8656zm0-10.6218c-1.9465.0-3.5192 1.5726-3.5192 3.5191S18.8976 61.282 20.8441 61.282C22.7905 61.282 24.3632 59.7094 24.3632 57.7629s-1.5727-3.5191-3.5191-3.5191z" fill="#2d527c"/><path d="M24.3891 25.7168H1.7918C.799219 25.7168.0 24.9176.0 23.925V2.92617c0-.99258.799219-1.7918 1.7918-1.7918H24.3891c.9925.0 1.7918.79922 1.7918 1.7918V23.925c0 .9926-.799300000000002 1.7918-1.7918 1.7918zM3.58359 22.1332H22.5973V4.71796H3.58359V22.1332z" fill="#2d527c"/><path d="M13.3289 7.25742H9.99021C9.30701 7.25742 8.79138 7.6957 8.79138 8.28867V18.5496C8.79138 19.1684 9.42302 19.5937 10.3125 19.5937c.9023.0 1.5211-.4253 1.5211-1.0441V15.3398h1.3277c2.6941.0 4.241-1.4566 4.241-4.0089V11.2535c0-2.57811-1.4437-3.99608-4.0734-3.99608zm-.1676 5.59448H11.8336V9.99023h1.3277C13.9605 9.99023 14.3472 10.4285 14.3472 11.3309V11.5113c0 .9024-.386700000000001 1.3406-1.1859 1.3406z" fill="#2d527c"/><path d="M13.0839 40.7988C12.0913 40.7988 11.2921 39.9996 11.2921 39.007V24.157c0-.9925.799200000000001-1.7918 1.7918-1.7918S14.8757 23.1645 14.8757 24.157v14.85C14.8886 39.9996 14.0765 40.7988 13.0839 40.7988z" fill="#2d527c"/></g><defs><clipPath id="clip0_370726_530"><rect width="66" height="66" fill="#fff"/></clipPath></defs></svg>