<svg width="25" height="25" viewBox="0 0 25 25" fill="none" xmlns="http://www.w3.org/2000/svg"><g clip-path="url(#clip0_370726_100)"><path d="M17.1779 11.7844c-.843600000000002.0-1.5338.6646-1.5338 1.5082S16.3343 14.8263 17.1523 14.8263C17.9959 14.8263 18.6605 14.1362 18.6605 13.3182 18.6861 12.449 18.0214 11.7844 17.1779 11.7844zm0 2.2751c-.4346.0-.7669-.3323-.7669-.7669s.3323-.7669.7669-.7669c.4345.0.7668.357899999999999.7668.7669.0.4346-.357800000000001.7669-.7668.7669z" fill="#999"/><path d="M7.7965 9.58598C5.77707 9.56042 4.01327 11.2475 4.06439 13.3948 4.08996 15.3886 5.75151 17.1013 7.84762 17.0757 9.89261 17.0502 11.5542 15.3886 11.5542 13.3436c0-2.0705-1.66159-3.75762-3.7577-3.75762zM7.84762 15.6187C6.49282 15.6698 5.39364 14.5962 5.39364 13.2925c0-1.3292 1.09918-2.3517 2.32617-2.3262 1.27812.0 2.32619 1.0225 2.32619 2.3262C10.0715 14.5962 9.04905 15.5676 7.84762 15.6187z" fill="#999"/><path d="M12.5.0C5.59815.0.0 5.59815.0 12.5.0 19.4018 5.59815 25 12.5 25 19.4018 25 25 19.4018 25 12.5 25 5.59815 19.4018.0 12.5.0zm7.183 17.3568C18.9161 17.8425 18.0726 18.0726 17.1779 18.0726 16.7945 18.0726 16.411 18.0215 16.0532 17.9192 15.1585 17.6891 14.3916 17.229 13.7525 16.5644 13.6759 16.4877 13.5992 16.3855 13.4969 16.2832 13.1646 16.7945 12.8323 17.2801 12.5 17.7914 12.1677 17.2801 11.8354 16.7945 11.5031 16.3088 11.4775 16.3088 11.4775 16.3343 11.4775 16.3343L11.4519 16.3599C10.6851 17.2801 9.71369 17.817 8.53782 18.0215 7.8732 18.1237 7.23414 18.0981 6.59509 17.9192 5.7004 17.6636 4.93353 17.2035 4.29447 16.4877 3.68098 15.7975 3.3231 15.0051 3.16973 14.0849 3.01636 13.2413 3.19529 12.4233 3.24642 12.2188 3.39979 11.6309 3.62985 11.1196 3.98773 10.6339 4.01329 10.6084 4.01329 10.5317 4.01329 10.5061 3.88548 9.99488 3.62985 9.53475 3.34867 9.07463 3.27198 8.97238 3.19529 8.87013 3.11861 8.74232V8.71676c.02556.0.02556.0.0511200000000001.0.94581.0 1.89161.0 2.83742.0C6.05828 8.71676 6.08384 8.6912 6.13496 8.66564 6.79958 8.23108 7.51533 7.89876 8.25664 7.64314 8.79345 7.4642 9.33026 7.31083 9.89263 7.20858 10.4294 7.10633 10.9662 7.02964 11.5286 7.00408 12.8579 6.90183 13.9315 7.02964 14.6472 7.13189 15.184 7.20858 15.6953 7.33639 16.2065 7.48977 17.1012 7.77095 17.9192 8.15439 18.7116 8.64007 18.7628 8.66564 18.8394 8.6912 18.9161 8.6912c.920300000000001.0 1.8405.0 2.7608.0.0766999999999989.0.153300000000002.0.23.0V8.71676C21.8558 8.79345 21.8302 8.84457 21.7791 8.92126 21.4724 9.40694 21.1912 9.89263 21.0378 10.455 21.0122 10.5061 21.0122 10.5572 21.0634 10.6339 21.8814 11.8098 22.137 13.1135 21.8047 14.5194 21.4468 15.7208 20.7566 16.6667 19.683 17.3568z" fill="#999"/><path d="M7.71982 11.7844C6.90182 11.7844 6.21164 12.4746 6.21164 13.2926c0 .8436.69018 1.5082 1.53374 1.5082C8.56338 14.8008 9.25356 14.1106 9.25356 13.267c0-.818-.664620000000001-1.4826-1.53374-1.4826zM7.74538 14.085C7.31082 14.085 6.95295 13.7527 6.95295 13.2926c0-.4346.33231-.7669.76687-.7669S8.48669 12.858 8.51225 13.2926 8.17994 14.0595 7.74538 14.085z" fill="#999"/><path d="M17.1012 9.61152C15.0562 9.66264 13.4458 11.2986 13.4202 13.3436c0 2.0706 1.6871 3.7832 3.7577 3.7577 2.0705.0 3.7577-1.6616 3.7577-3.7577.0-2.1472-1.7638-3.78321-3.8344-3.73208zM17.2801 15.6187C15.9253 15.6698 14.8517 14.5962 14.8517 13.2925c0-1.3292 1.0992-2.3517 2.3262-2.3262 1.2781.0 2.3262 1.0225 2.3262 2.3262.0 1.2781-1.0225 2.275-2.224 2.3262z" fill="#999"/><path d="M13.9826 9.86723C14.8006 9.10035 15.7975 8.71692 16.9223 8.61467 15.593 8.02674 14.1871 7.77111 12.73 7.74555 11.094 7.71999 9.48361 7.95005 7.97543 8.58911 9.12574 8.6658 10.1227 9.04923 10.9662 9.8161 11.8098 10.583 12.2955 11.5543 12.4744 12.6791 12.6789 11.5799 13.1646 10.6341 13.9826 9.86723z" fill="#999"/></g><defs><clipPath id="clip0_370726_100"><rect width="25" height="25" fill="#fff"/></clipPath></defs></svg>