<svg width="25" height="25" viewBox="0 0 25 25" fill="none" xmlns="http://www.w3.org/2000/svg"><g clip-path="url(#clip0_370726_103)"><path d="M12.5.0C5.59815.0.0 5.59815.0 12.5.0 19.4018 5.59815 25 12.5 25 19.4018 25 25 19.4018 25 12.5 25 5.59815 19.4018.0 12.5.0zm6.3394 13.8548C19.4274 14.4172 20.0409 14.954 20.5521 15.593 20.7822 15.8742 21.0122 16.1554 21.1656 16.4877 21.3957 16.9478 21.1912 17.4591 20.7822 17.4846H18.226C17.5613 17.5358 17.0501 17.2801 16.59 16.82 16.2321 16.4622 15.8998 16.0787 15.5675 15.6953 15.4397 15.5419 15.2863 15.3885 15.1073 15.2863 14.7495 15.0562 14.4427 15.1329 14.2638 15.4908 14.0593 15.8742 14.0082 16.2832 13.9826 16.6922 13.957 17.3057 13.7781 17.4591 13.1646 17.4846 11.8609 17.5358 10.6339 17.3568 9.50919 16.6922 8.51226 16.1043 7.71983 15.3118 7.05521 14.3916c-1.32924-1.7894-2.32618-3.7577-3.24642-5.77709C3.60429 8.15439 3.75767 7.92433 4.26891 7.89876 5.11247 7.8732 5.93046 7.8732 6.77402 7.89876c.33231.0.56237.2045.690189999999999.51125C7.92433 9.50919 8.46114 10.5828 9.15132 11.5542 9.33026 11.8098 9.53475 12.0654 9.79038 12.2699 10.0971 12.4744 10.3016 12.3977 10.455 12.0654 10.5317 11.8609 10.5828 11.6309 10.6084 11.4008 10.6851 10.6339 10.6851 9.86707 10.5572 9.10019 10.4806 8.58895 10.2249 8.2822 9.73925 8.17995 9.48363 8.12883 9.53476 8.05214 9.637 7.89876 9.8415 7.6687 10.046 7.51533 10.4294 7.51533H13.318C13.7781 7.61758 13.8804 7.79652 13.9315 8.25664V11.4775C13.9315 11.6564 14.0082 12.1932 14.3405 12.2955 14.5961 12.3722 14.775 12.1677 14.9284 12.0143 15.6186 11.273 16.1043 10.4039 16.5644 9.50919 16.7689 9.10019 16.9223 8.6912 17.1012 8.2822 17.229 7.97545 17.408 7.82208 17.7658 7.82208h2.7863C20.6288 7.82208 20.7055 7.82208 20.8078 7.84764 21.2679 7.92433 21.3957 8.12883 21.2679 8.58895c-.2301.71574-.6646 1.32924-1.0992 1.91715C19.7086 11.1452 19.1973 11.7587 18.7372 12.4233 18.2771 13.0368 18.3026 13.3435 18.8394 13.8548z" fill="#999"/></g><defs><clipPath id="clip0_370726_103"><rect width="25" height="25" fill="#fff"/></clipPath></defs></svg>