<svg width="25" height="25" viewBox="0 0 25 25" fill="none" xmlns="http://www.w3.org/2000/svg"><path d="M10.7106 8.32552c0 1.03055.8354 1.86608 1.866 1.86608 1.0305.0 1.866-.835529999999999 1.866-1.86608.0-1.03056-.8355-1.86602-1.866-1.86602-1.0306.0-1.866.835459999999999-1.866 1.86602z" fill="#999"/><path fill-rule="evenodd" clip-rule="evenodd" d="M12.5 25C19.4036 25 25 19.4036 25 12.5 25 5.59644 19.4036.0 12.5.0 5.59644.0.0 5.59644.0 12.5.0 19.4036 5.59644 25 12.5 25zM8.06251 8.32546c0-2.49303 2.02099-4.51409 4.51409-4.51409 2.4931.0 4.5141 2.02106 4.5141 4.51409.0 2.49304-2.021 4.51424-4.5141 4.51424-2.4931.0-4.51409-2.0212-4.51409-4.51424zM17.1176 15.1617C17.0604 15.2076 15.9774 16.0634 14.1702 16.4316l2.7279 2.7035C17.3778 19.6141 17.3784 20.3912 16.8994 20.8709 16.4205 21.3506 15.6435 21.3514 15.1636 20.8723l-2.6483-2.579-2.4054 2.5624C9.86912 21.1055 9.54789 21.2311 9.22631 21.2311 8.91959 21.2311 8.61261 21.117 8.37443 20.8873 7.88644 20.4168 7.8723 19.6398 8.34283 19.1518L10.932 16.4459C9.07424 16.0864 7.94659 15.2083 7.88852 15.1617 7.3597 14.7376 7.27476 13.9651 7.69885 13.4362 8.12288 12.9074 8.8953 12.8225 9.42424 13.2465 9.4354 13.2556 10.6149 14.1416 12.5153 14.1429 14.4157 14.1416 15.5707 13.2556 15.5819 13.2465 16.1109 12.8225 16.8833 12.9074 17.3073 13.4362 17.7314 13.9651 17.6464 14.7376 17.1176 15.1617z" fill="#999"/></svg>