<svg width="14" height="14" viewBox="0 0 14 14" fill="none" xmlns="http://www.w3.org/2000/svg"><g clip-path="url(#clip0_370726_250)"><path d="M13.6962 6.37211C13.9717 6.10355 14.069 5.7094 13.9501 5.343 13.831 4.9766 13.5207 4.71504 13.1394 4.65954L9.74958 4.16699C9.60521 4.14596 9.48046 4.05541 9.41598 3.9245L7.90048.853131C7.73032.508036 7.38494.293579 7.00004.293579 6.61542.293579 6.27004.508036 6.09988.853131L4.5841 3.92478C4.51962 4.05569 4.39459 4.14624 4.25022 4.16727L.860391 4.65982C.479414 4.71504.168802 4.97688.0496586 5.34328c-.1188626.3664-.0215859.76055.2539844 1.02911L2.75631 8.7631C2.86087 8.86514 2.90881 9.01204 2.88414 9.15557L2.30553 12.5314c-.05131.2971.0266299999999999.5862.21894.8141.29884.3552.82054.4634 1.23768.244200000000001l3.03156-1.594C6.92042 11.9292 7.07993 11.9298 7.20637 11.9957l3.03183 1.594C10.3857 13.6673 10.5429 13.7066 10.7052 13.7066c.2964.0.577300000000001-.1318.7704-.3611C11.6682 13.1176 11.7459 12.828 11.6946 12.5314L11.1157 9.15557C11.091 9.01176 11.1389 8.86514 11.2435 8.7631l2.4527-2.39099z" fill="#f0bf5f"/></g><defs><clipPath id="clip0_370726_250"><rect width="14" height="14" fill="#fff"/></clipPath></defs></svg>